<svg width="26" height="26" viewBox="0 0 26 26" fill="none" xmlns="http://www.w3.org/2000/svg">
  <path fill-rule="evenodd" clip-rule="evenodd"
        d="M13.0544 25.7766H13.0491C10.8825 25.7758 8.75353 25.2348 6.86268 24.2084L0 26L1.83657 19.3238C0.703684 17.3699 0.107565 15.1536 0.108537 12.8829C0.111377 5.77931 5.91879 0 13.0543 0C16.5174 0.00148749 19.7678 1.34321 22.2119 3.7785C24.6561 6.21366 26.0014 9.45058 26 12.893C25.9971 19.995 20.192 25.7737 13.0544 25.7766ZM3.10823 22.9392L3.1257 22.8757L3.23146 22.907L3.10823 22.9392ZM19.1333 15.6668C19.0786 15.6404 19.0196 15.612 18.9564 15.5806C18.6329 15.4194 17.0426 14.6408 16.7461 14.5332C16.4496 14.4258 16.2339 14.3722 16.0183 14.6943C15.8027 15.0166 15.1828 15.7418 14.9941 15.9566C14.8054 16.1714 14.6167 16.1984 14.2933 16.0372C14.2405 16.0108 14.1685 15.9797 14.0795 15.9414C13.6241 15.7448 12.7257 15.3569 11.6921 14.4394C10.7304 13.5857 10.0813 12.5316 9.89258 12.2093C9.7039 11.887 9.87247 11.7128 10.0344 11.5523C10.1313 11.4562 10.2426 11.3214 10.3538 11.1865C10.4097 11.1188 10.4656 11.0511 10.5196 10.9883C10.6571 10.8286 10.7166 10.7075 10.7976 10.543C10.8119 10.5139 10.8269 10.4835 10.8431 10.4513C10.9509 10.2364 10.897 10.0484 10.8161 9.8873C10.762 9.77947 10.4545 9.03434 10.1761 8.35995C10.0385 8.02647 9.90798 7.71029 9.8188 7.49701C9.58697 6.94281 9.35196 6.94418 9.16346 6.94528C9.13846 6.94543 9.11427 6.94557 9.09101 6.94441C8.90255 6.93498 8.68667 6.933 8.47106 6.933C8.25543 6.933 7.90497 7.01357 7.60848 7.33586C7.58947 7.35653 7.56824 7.37907 7.54516 7.40358C7.20827 7.76134 6.47637 8.53858 6.47637 10.0214C6.47637 11.5977 7.62337 13.1208 7.79456 13.3481L7.79717 13.3516C7.80775 13.3656 7.82673 13.3927 7.85386 13.4314C8.24118 13.9843 10.2905 16.9093 13.3229 18.2124C14.0947 18.5441 14.6971 18.7422 15.167 18.8905C15.9418 19.1356 16.647 19.101 17.2043 19.0181C17.8258 18.9257 19.1181 18.2394 19.3877 17.4875C19.6572 16.7354 19.6572 16.0908 19.5763 15.9566C19.5113 15.8485 19.3589 15.7753 19.1333 15.6668Z"
        fill="white" fill-opacity="0.4"/>
</svg>
