<svg width="28" height="28" viewBox="0 0 28 28" fill="none" xmlns="http://www.w3.org/2000/svg">
<path d="M14.0002 3.47675C17.4224 3.47675 17.8502 3.47675 19.2191 3.5623C20.0319 3.5623 20.8446 3.73341 21.5719 3.99008C22.128 4.20397 22.6413 4.54619 23.0691 4.93119C23.4969 5.35897 23.8391 5.82953 24.0102 6.38564C24.3096 7.15564 24.438 7.96841 24.438 8.78119C24.5235 10.1501 24.5235 10.5351 24.5235 13.9573C24.5235 17.3795 24.5235 17.8073 24.438 19.1334C24.438 19.9462 24.2669 20.759 24.0102 21.529C23.5824 22.6412 22.6841 23.5395 21.5719 23.9673C20.8019 24.2667 19.9891 24.3951 19.2191 24.4379C17.8502 24.4806 17.4224 24.5234 14.0002 24.5234C10.578 24.5234 10.193 24.5234 8.82409 24.4379C8.01131 24.4379 7.19854 24.2667 6.42854 23.9673C5.87243 23.7534 5.35909 23.454 4.97409 23.0262C4.54631 22.5984 4.20409 22.0851 4.03298 21.529C3.73354 20.759 3.6052 19.9462 3.56243 19.1334C3.47687 17.8501 3.47687 17.4223 3.47687 14.0001C3.47687 10.5779 3.47687 10.1929 3.56243 8.82397C3.56243 8.01119 3.73354 7.19841 4.03298 6.42841C4.20409 5.8723 4.50354 5.35897 4.97409 4.97397C5.40187 4.54619 5.87243 4.20397 6.42854 3.99008C7.19854 3.69064 8.01131 3.5623 8.82409 3.5623C10.1502 3.47675 10.578 3.47675 14.0002 3.47675ZM14.0002 1.16675C10.5352 1.16675 10.1074 1.16675 8.69576 1.2523C7.62631 1.2523 6.59965 1.46619 5.57298 1.85119C4.71743 2.15064 3.94743 2.66397 3.30576 3.34841C2.66409 3.99008 2.15076 4.76008 1.80854 5.61564C1.42354 6.59952 1.25243 7.66897 1.20965 8.73841C1.16687 10.0645 1.16687 10.4923 1.16687 14.0001C1.16687 17.5079 1.16687 17.9356 1.25243 19.3045C1.2952 20.374 1.46631 21.4006 1.85131 22.4273C2.19354 23.2829 2.70687 24.0529 3.34854 24.6945C3.9902 25.3362 4.7602 25.8495 5.61576 26.149C6.59965 26.534 7.66909 26.7479 8.73854 26.7479C10.0646 26.7906 10.5352 26.8334 14.0002 26.8334C17.4652 26.8334 17.893 26.8334 19.3046 26.7479C20.3741 26.7051 21.4435 26.534 22.4274 26.149C23.283 25.8495 24.053 25.3362 24.6946 24.6945C25.3363 24.0529 25.8496 23.2829 26.1919 22.4273C26.5769 21.4434 26.748 20.374 26.7908 19.3045C26.8335 17.9356 26.8335 17.4651 26.8335 14.0001C26.8335 10.5351 26.8335 10.0645 26.748 8.69564C26.748 7.62619 26.5341 6.55675 26.1491 5.57286C25.4646 3.86175 24.1385 2.49286 22.3846 1.80841C21.4008 1.42341 20.3313 1.20953 19.2619 1.20953C17.9358 1.16675 17.4652 1.16675 14.0002 1.16675ZM14.0002 7.4123C10.193 7.4123 7.15576 10.4923 7.15576 14.2567C7.15576 18.064 10.2358 21.1012 14.0002 21.1012C17.8074 21.1012 20.8446 18.0212 20.8446 14.2567C20.8446 10.4923 17.8074 7.4123 14.0002 7.4123ZM14.0002 18.2779C11.6474 18.2779 9.72242 16.3529 9.72242 14.0001C9.72242 11.6473 11.6474 9.7223 14.0002 9.7223C16.353 9.7223 18.278 11.6473 18.278 14.0001C18.278 16.3529 16.353 18.2779 14.0002 18.2779ZM20.8446 5.61564C21.7002 5.61564 22.3846 6.30008 22.3846 7.15564C22.3846 8.01119 21.7002 8.69564 20.8446 8.69564C19.9891 8.69564 19.3046 8.01119 19.3046 7.15564C19.3046 6.30008 19.9891 5.61564 20.8446 5.61564Z" fill="white"/>
</svg>
