<svg width="26" height="26" viewBox="0 0 26 26" fill="none" xmlns="http://www.w3.org/2000/svg">
  <path
    d="M10.8379 15.6446L10.6167 18.9583C10.9417 18.9583 11.0853 18.8097 11.2667 18.6333L12.8281 17.115L16.0767 19.5151C16.6745 19.8449 17.106 19.6741 17.2549 18.96L19.3874 8.91069C19.6058 8.03533 19.0538 7.63831 18.4818 7.89797L5.95959 12.7265C5.10483 13.0693 5.10981 13.5462 5.80378 13.7587L9.01728 14.7617L16.4569 10.0681C16.8081 9.85516 17.1304 9.96966 16.8658 10.2045L10.8379 15.6446ZM13 26C5.8203 26 0 20.1797 0 13C0 5.8203 5.8203 0 13 0C20.1797 0 26 5.8203 26 13C26 20.1797 20.1797 26 13 26Z"
    fill="white"/>
  <path
    d="M13 26C20.1797 26 26 20.1797 26 13C26 5.8203 20.1797 0 13 0C5.8203 0 0 5.8203 0 13C0 20.1797 5.8203 26 13 26Z"
    fill="url(#paint0_linear_31_891)"/>
  <path d="M10.6171 18.9582C10.196 18.9582 10.2675 18.7991 10.1223 18.3981L8.88379 14.3221L18.4171 8.6665"
        fill="#C8DAEA"/>
  <path d="M10.6162 18.9583C10.9412 18.9583 11.0848 18.8097 11.2662 18.6333L12.9995 16.9478L10.8374 15.644"
        fill="#A9C9DD"/>
  <path
    d="M10.8379 15.6442L16.0769 19.5149C16.6748 19.8447 17.1063 19.6739 17.2552 18.9598L19.3877 8.9105C19.606 8.03514 19.054 7.63812 18.4821 7.89777L5.95986 12.7263C5.1051 13.0691 5.11008 13.546 5.80406 13.7585L9.01755 14.7615L16.4571 10.0679C16.8083 9.85497 17.1307 9.96947 16.8661 10.2043"
    fill="url(#paint1_linear_31_891)"/>
  <defs>
    <linearGradient id="paint0_linear_31_891" x1="1733.42" y1="433.42" x2="1083.42" y2="1950"
                    gradientUnits="userSpaceOnUse">
      <stop stop-color="#37AEE2"/>
      <stop offset="1" stop-color="#1E96C8"/>
    </linearGradient>
    <linearGradient id="paint1_linear_31_891" x1="870.956" y1="525.854" x2="1009.86" y2="975.163"
                    gradientUnits="userSpaceOnUse">
      <stop stop-color="#EFF7FC"/>
      <stop offset="1" stop-color="white"/>
    </linearGradient>
  </defs>
</svg>
