<svg width="50" height="14" viewBox="0 0 50 14" fill="none" xmlns="http://www.w3.org/2000/svg">
  <path fill-rule="evenodd" clip-rule="evenodd"
        d="M7.67182 10.5977H5.4947C2.09881 10.5977 4.56595 3.38262 7.42494 3.38262H10.8646C11.416 3.38262 12.3883 3.48407 12.8674 2.11958L13.6076 0H8.89081C6.33651 0 4.34821 0.899987 2.91147 2.40999C0.429676 4.99406 -0.411913 9.0299 0.183026 10.9606C0.749043 12.7463 2.28742 13.9221 4.69649 13.9511L6.56869 13.9657H8.87635L9.44236 12.2672C9.86317 11.0622 8.91974 10.5977 7.67182 10.5977ZM34.1722 7.60718L34.8835 5.29887H27.2931C26.0306 5.29887 25.4645 5.64728 25.2468 6.37317L24.5357 8.68149H32.126C33.3887 8.68149 33.9546 8.33305 34.1722 7.60718ZM23.4038 11.672L22.6925 13.9801H30.2827C31.5308 13.9801 32.1113 13.6319 32.329 12.906L33.0403 10.5977H25.45C24.202 10.5977 23.6359 10.9462 23.4038 11.672ZM35.9429 2.32271L36.654 0.014612H29.0637C27.8012 0.014612 27.2351 0.362833 27.0173 1.08871L26.3063 3.39702H33.8966C35.1448 3.39702 35.7105 3.04859 35.9429 2.32271ZM24.4776 2.78743C24.1585 0.63882 23.0119 0.014612 20.2254 0.014612H15.1459L12.1853 8.68149H14.0575C15.1748 8.68149 15.7409 8.69589 16.336 7.09904L17.5695 3.38262H19.4561C21.0671 3.38262 20.7042 5.40053 19.8916 7.3602C19.1659 9.08795 17.9033 10.6121 16.3794 10.6121H13.2301C11.9675 10.6121 11.3871 10.9606 11.1549 11.6864L10.3711 13.9947H12.6786L14.9427 13.9801C16.9454 13.9657 18.5854 13.8206 20.5012 12.0929C22.5329 10.2493 24.8841 5.5166 24.4776 2.78743ZM49.9913 0H45.594L41.4577 4.39867C40.9788 4.90681 40.4853 5.41495 40.0065 6.01012H39.9629L42.0236 0H38.4389L33.6065 13.9801H37.1909L38.7292 9.58146L40.3256 8.23138L41.5885 12.2092C41.98 13.4432 42.3867 13.9801 43.2575 13.9801H46.0002L43.1849 6.16982L49.9913 0Z"
        fill="currentColor"/>
</svg>
