<svg width="30" height="30" viewBox="0 0 30 30" fill="none" xmlns="http://www.w3.org/2000/svg">
<path fill-rule="evenodd" clip-rule="evenodd" d="M7.52449 6.11028C7.13397 5.71975 6.5008 5.71975 6.11028 6.11028C5.71975 6.5008 5.71975 7.13397 6.11028 7.52449L13.5858 15L6.11028 22.4756C5.71975 22.8661 5.71975 23.4993 6.11028 23.8898C6.5008 24.2803 7.13397 24.2803 7.52449 23.8898L15 16.4143L22.4756 23.8898C22.8661 24.2803 23.4993 24.2803 23.8898 23.8898C24.2803 23.4993 24.2803 22.8661 23.8898 22.4756L16.4143 15L23.8898 7.52449C24.2803 7.13397 24.2803 6.5008 23.8898 6.11028C23.4993 5.71975 22.8661 5.71975 22.4756 6.11028L15 13.5858L7.52449 6.11028Z" fill="currentColor"/>
</svg>
