<svg width="26" height="26" viewBox="0 0 26 26" fill="none" xmlns="http://www.w3.org/2000/svg">
  <path
    d="M10.8379 15.6446L10.6167 18.9583C10.9417 18.9583 11.0853 18.8097 11.2667 18.6333L12.8281 17.115L16.0767 19.5151C16.6745 19.8449 17.106 19.6741 17.2549 18.96L19.3874 8.91069C19.6058 8.03533 19.0538 7.63831 18.4818 7.89797L5.95959 12.7265C5.10483 13.0693 5.10981 13.5462 5.80378 13.7587L9.01728 14.7617L16.4569 10.0681C16.8081 9.85516 17.1304 9.96966 16.8658 10.2045L10.8379 15.6446ZM13 26C5.8203 26 0 20.1797 0 13C0 5.8203 5.8203 0 13 0C20.1797 0 26 5.8203 26 13C26 20.1797 20.1797 26 13 26Z"
    fill="white" fill-opacity="0.4"/>
</svg>
