<svg width="26" height="26" viewBox="0 0 26 26" fill="none" xmlns="http://www.w3.org/2000/svg">
  <path
    d="M0 13C0 5.8203 5.8203 0 13 0C20.1797 0 26 5.8203 26 13C26 20.1797 20.1797 26 13 26C5.8203 26 0 20.1797 0 13ZM12.9999 5.41667C8.81846 5.41667 5.41667 8.80888 5.41667 12.9785C5.41667 17.1481 8.81846 20.5404 12.9999 20.5404C14.5318 20.5404 16.0089 20.0856 17.2714 19.2252L17.2933 19.2102L16.2717 18.0258L16.2543 18.037C15.2824 18.6605 14.157 18.99 12.9999 18.99C9.67576 18.99 6.97141 16.2933 6.97141 12.9785C6.97141 9.66371 9.67576 6.96698 12.9999 6.96698C16.324 6.96698 19.0284 9.66371 19.0284 12.9785C19.0284 13.408 18.9806 13.8429 18.8865 14.2708C18.6957 15.0509 18.1481 15.2899 17.7366 15.2583C17.323 15.225 16.8388 14.9309 16.8356 14.2115V12.9785C16.8356 10.8694 15.1149 9.15359 12.9999 9.15359C10.8849 9.15359 9.16415 10.8694 9.16415 12.9785C9.16415 15.0876 10.8849 16.8035 12.9999 16.8035C14.0272 16.8035 14.991 16.4027 15.7175 15.6744C16.1398 16.3298 16.8286 16.7409 17.612 16.8036C17.6792 16.809 17.7478 16.8118 17.816 16.8118C18.3676 16.8118 18.9143 16.6279 19.3551 16.2942C19.8097 15.9501 20.149 15.4522 20.3364 14.8545C20.3667 14.758 20.4215 14.5367 20.4218 14.5353L20.4234 14.5273C20.5339 14.0474 20.5832 13.5692 20.5832 12.9785C20.5832 8.80888 17.1813 5.41667 12.9999 5.41667Z"
    fill="white" fill-opacity="0.4"/>
  <path fill-rule="evenodd" clip-rule="evenodd"
        d="M15.2809 12.9786C15.2809 14.2329 14.2576 15.2532 12.9999 15.2532C11.7421 15.2532 10.7189 14.2329 10.7189 12.9786C10.7189 11.7244 11.7421 10.7041 12.9999 10.7041C14.2576 10.7041 15.2809 11.7244 15.2809 12.9786Z"
        fill="white" fill-opacity="0.4"/>
</svg>
