<svg width="59" height="75" viewBox="0 0 59 75" fill="none" xmlns="http://www.w3.org/2000/svg">
<path d="M9.46 6.84751C9.46 5.5275 10.8533 4.2075 13.64 2.8875C16.5733 1.5675 19.4333 0.687498 22.22 0.247495C25.1533 -0.192499 26.5467 -0.045831 26.4 0.687502L2.42 73.5075C2.27333 73.9475 1.83333 74.2408 1.1 74.3875C0.366667 74.3875 0 74.2408 0 73.9475L9.46 6.84751ZM41.36 6.84751C41.36 5.5275 42.7533 4.2075 45.54 2.8875C48.4733 1.5675 51.3333 0.687498 54.12 0.247495C57.0533 -0.192499 58.4467 -0.045831 58.3 0.687502L34.32 73.5075C34.1733 73.9475 33.7333 74.2408 33 74.3875C32.2667 74.3875 31.9 74.2408 31.9 73.9475L41.36 6.84751Z" fill="#B88F64"/>
</svg>
