<svg width="70" height="47" viewBox="0 0 70 47" fill="none" xmlns="http://www.w3.org/2000/svg">
<rect width="70" height="46.6667" rx="8.55556" fill="#0D0D0D"/>
<path d="M45.0949 11.2109C42.9053 11.2109 41.1098 12.9846 41.1098 15.1961V19.3345H46.7372C46.8686 19.3345 47.0218 19.3345 47.1313 19.3564C48.4013 19.4221 49.3429 20.079 49.3429 21.2176C49.3429 22.1154 48.7079 22.8818 47.5255 23.035V23.0788C48.8174 23.1664 49.8027 23.889 49.8027 25.0057C49.8027 26.21 48.7079 26.9983 47.2627 26.9983H41.0879V35.1H46.9343C49.1239 35.1 50.9194 33.3264 50.9194 31.1149V11.2109H45.0949Z" fill="#40A737"/>
<path d="M43.0568 25.7293H45.356C45.3888 25.7293 45.4436 25.7239 45.4983 25.7184C45.553 25.7129 45.6078 25.7074 45.6406 25.7074C46.0786 25.6199 46.4508 25.2257 46.4508 24.6783C46.4508 24.1528 46.0786 23.7587 45.6406 23.6492C45.5749 23.6273 45.4436 23.6273 45.356 23.6273H43.0568V25.7293Z" fill="#40A737"/>
<path d="M45.356 20.5388C45.7939 20.6044 46.1661 20.9548 46.1661 21.4803C46.1661 22.0058 45.7939 22.3562 45.356 22.4219C45.3341 22.4438 45.2027 22.4438 45.137 22.4438H43.0568V20.5169H45.137C45.1732 20.5169 45.2226 20.5235 45.267 20.5295C45.3033 20.5343 45.3363 20.5388 45.356 20.5388Z" fill="#40A737"/>
<path d="M23.0657 11.2109C20.876 11.2109 19.0805 12.9846 19.0805 15.1961V25.0276C20.1972 25.575 21.3577 25.9254 22.5182 25.9254C23.8977 25.9254 24.6422 25.0933 24.6422 23.9547V19.3126H28.0581V23.9328C28.0581 25.7283 26.9413 27.1954 23.1532 27.1954C20.8541 27.1954 19.0586 26.6918 19.0586 26.6918V35.0781H24.905C27.0946 35.0781 28.8901 33.3045 28.8901 31.0929V11.2109H23.0657Z" fill="#0066B1"/>
<path d="M34.077 11.2109C31.8873 11.2109 30.0918 12.9846 30.0918 15.1961V20.4075C31.099 19.5535 32.8508 19.0061 35.6754 19.1375C37.1863 19.2032 38.8066 19.6192 38.8066 19.6192V21.3052C37.9964 20.8892 37.033 20.5169 35.7849 20.4294C33.639 20.2761 32.3471 21.3271 32.3471 23.1664C32.3471 25.0276 33.639 26.0787 35.7849 25.9035C37.033 25.8159 37.9964 25.4218 38.8066 25.0276V26.7137C38.8066 26.7137 37.2082 27.1297 35.6754 27.1954C32.8508 27.3268 31.099 26.7793 30.0918 25.9254V35.1219H35.9382C38.1278 35.1219 39.9233 33.3483 39.9233 31.1367V11.2109H34.077Z" fill="#DC0436"/>
</svg>
