<svg xmlns="http://www.w3.org/2000/svg" width="20" height="20" viewBox="0 0 20 20" fill="none">
  <path d="M6.78005 10.9169C9.01885 10.9169 10.8312 9.38171 10.8312 7.50538C10.8312 5.62905 9.01885 4.09387 6.78005 4.09387C4.54124 4.09387 2.72888 5.62905 2.72888 7.50538C2.72888 9.38171 4.56256 10.9169 6.78005 10.9169ZM6.78005 4.94674C8.54977 4.94674 9.97834 6.09813 9.97834 7.50538C9.97834 8.91263 8.54977 10.064 6.78005 10.064C5.01033 10.064 3.58175 8.91263 3.58175 7.50538C3.58175 6.09813 5.03165 4.94674 6.78005 4.94674ZM4.86107 7.50538C4.86107 7.27084 5.05297 7.07894 5.28751 7.07894H8.27259C8.50713 7.07894 8.69902 7.27084 8.69902 7.50538C8.69902 7.73992 8.50713 7.93182 8.27259 7.93182H5.28751C5.05297 7.93182 4.86107 7.73992 4.86107 7.50538ZM18.9336 12.1962H12.9634V7.50538C12.9634 4.45634 10.1916 1.96167 6.78005 1.96167C3.36853 1.96167 0.59668 4.45634 0.59668 7.50538V11.7698C0.59668 14.8188 3.36853 17.3135 6.78005 17.3135H18.9336C19.1681 17.3135 19.36 17.1216 19.36 16.887V12.6227C19.36 12.3881 19.1681 12.1962 18.9336 12.1962ZM12.1105 12.1962H10.0636C10.8952 11.7271 11.5988 11.0661 12.1105 10.3199V12.1962ZM6.78005 2.81455C9.72248 2.81455 12.1105 4.92542 12.1105 7.50538C12.1105 10.0853 9.72248 12.1962 6.78005 12.1962C3.83762 12.1962 1.44956 10.0853 1.44956 7.50538C1.44956 4.92542 3.83762 2.81455 6.78005 2.81455ZM1.44956 11.7698V10.3199C2.51566 11.9617 4.51992 13.0491 6.78005 13.0491H14.2427V16.4606H12.9634V14.7548C12.9634 14.5203 12.7715 14.3284 12.537 14.3284C12.3024 14.3284 12.1105 14.5203 12.1105 14.7548V16.4606H10.8312V15.6077C10.8312 15.3732 10.6393 15.1813 10.4048 15.1813C10.1702 15.1813 9.97834 15.3732 9.97834 15.6077V16.4606H8.69902V14.7548C8.69902 14.5203 8.50713 14.3284 8.27259 14.3284C8.03804 14.3284 7.84615 14.5203 7.84615 14.7548V16.4606H6.78005C6.71608 16.4606 6.63079 16.4606 6.56683 16.4606V15.6077C6.56683 15.3732 6.37493 15.1813 6.14039 15.1813C5.90585 15.1813 5.71395 15.3732 5.71395 15.6077V16.3753C3.28325 15.9276 1.44956 14.0299 1.44956 11.7698ZM18.5071 16.4606H15.0956V13.0491H18.5071V16.4606ZM16.3749 14.7548C16.3749 14.7335 16.3749 14.6909 16.3749 14.6696C16.3749 14.6482 16.3963 14.6056 16.3963 14.5843C16.4176 14.5629 16.4176 14.5416 16.4389 14.5203C16.4602 14.499 16.4815 14.4777 16.5029 14.4563C16.6095 14.3497 16.7587 14.3071 16.8867 14.3284C16.908 14.3284 16.9506 14.3497 16.9719 14.3497C16.9933 14.3711 17.0146 14.3711 17.0359 14.3924C17.0572 14.4137 17.0786 14.435 17.0999 14.4563C17.1212 14.4777 17.1425 14.499 17.1638 14.5203C17.1852 14.5416 17.1852 14.5629 17.2065 14.5843C17.2278 14.6056 17.2278 14.6482 17.2278 14.6696C17.2278 14.6909 17.2278 14.7335 17.2278 14.7548C17.2278 14.7762 17.2278 14.8188 17.2278 14.8401C17.2278 14.8615 17.2065 14.9041 17.2065 14.9254C17.2065 14.9467 17.1852 14.9681 17.1638 14.9894C17.1425 15.0107 17.1212 15.032 17.0999 15.0534C17.0786 15.0747 17.0572 15.096 17.0359 15.1173C17.0146 15.1386 16.9933 15.1386 16.9719 15.16C16.9506 15.1813 16.908 15.1813 16.8867 15.1813C16.8653 15.1813 16.8227 15.1813 16.8014 15.1813C16.6948 15.1813 16.5881 15.1386 16.5029 15.0534C16.4815 15.032 16.4602 15.0107 16.4389 14.9894C16.4389 14.9681 16.4176 14.9467 16.4176 14.9254C16.3963 14.9041 16.3963 14.8615 16.3963 14.8401C16.3749 14.8188 16.3749 14.7975 16.3749 14.7548Z" fill="white"/>
</svg>
