<svg width="26" height="26" viewBox="0 0 26 26" fill="none" xmlns="http://www.w3.org/2000/svg">
  <path
    d="M0 13C0 5.8203 5.8203 0 13 0C20.1797 0 26 5.8203 26 13C26 20.1797 20.1797 26 13 26C5.8203 26 0 20.1797 0 13ZM12.9999 5.41667C8.81846 5.41667 5.41667 8.80888 5.41667 12.9785C5.41667 17.1481 8.81846 20.5404 12.9999 20.5404C14.5318 20.5404 16.0089 20.0856 17.2714 19.2252L17.2933 19.2102L16.2717 18.0258L16.2543 18.037C15.2824 18.6605 14.157 18.99 12.9999 18.99C9.67576 18.99 6.97141 16.2933 6.97141 12.9785C6.97141 9.66371 9.67576 6.96698 12.9999 6.96698C16.324 6.96698 19.0284 9.66371 19.0284 12.9785C19.0284 13.408 18.9806 13.8429 18.8865 14.2708C18.6957 15.0509 18.1481 15.2899 17.7366 15.2583C17.323 15.225 16.8388 14.9309 16.8356 14.2115V12.9785C16.8356 10.8694 15.1149 9.15359 12.9999 9.15359C10.8849 9.15359 9.16415 10.8694 9.16415 12.9785C9.16415 15.0876 10.8849 16.8035 12.9999 16.8035C14.0272 16.8035 14.991 16.4027 15.7175 15.6744C16.1398 16.3298 16.8286 16.7409 17.612 16.8036C17.6792 16.809 17.7478 16.8118 17.816 16.8118C18.3676 16.8118 18.9143 16.6279 19.3551 16.2942C19.8097 15.9501 20.149 15.4522 20.3364 14.8545C20.3667 14.758 20.4215 14.5367 20.4218 14.5353L20.4234 14.5273C20.5339 14.0474 20.5832 13.5692 20.5832 12.9785C20.5832 8.80888 17.1813 5.41667 12.9999 5.41667Z"
    fill="white"/>
  <path fill-rule="evenodd" clip-rule="evenodd"
        d="M15.2807 12.9786C15.2807 14.2329 14.2575 15.2532 12.9997 15.2532C11.742 15.2532 10.7188 14.2329 10.7188 12.9786C10.7188 11.7244 11.742 10.7041 12.9997 10.7041C14.2575 10.7041 15.2807 11.7244 15.2807 12.9786Z"
        fill="white"/>
  <path d="M0 13C0 5.8203 5.8203 0 13 0C20.1797 0 26 5.8203 26 13C26 20.1797 20.1797 26 13 26C5.8203 26 0 20.1797 0 13Z"
        fill="#4777D5"/>
  <path
    d="M15.2812 12.9783C15.2812 14.2326 14.258 15.2529 13.0002 15.2529C11.7424 15.2529 10.7192 14.2326 10.7192 12.9783C10.7192 11.7241 11.7424 10.7038 13.0002 10.7038C14.258 10.7038 15.2812 11.7241 15.2812 12.9783ZM13.0002 5.4165C8.81879 5.4165 5.41699 8.80872 5.41699 12.9783C5.41699 17.148 8.81879 20.5402 13.0002 20.5402C14.5321 20.5402 16.0092 20.0854 17.2717 19.225L17.2936 19.21L16.272 18.0256L16.2546 18.0368C15.2827 18.6603 14.1573 18.9899 13.0002 18.9899C9.67608 18.9899 6.97174 16.2931 6.97174 12.9783C6.97174 9.66355 9.67608 6.96682 13.0002 6.96682C16.3244 6.96682 19.0287 9.66355 19.0287 12.9783C19.0287 13.4079 18.9809 13.8428 18.8868 14.2706C18.696 15.0507 18.1484 15.2898 17.7369 15.2581C17.3233 15.2248 16.8391 14.9307 16.836 14.2113V12.9783C16.836 10.8693 15.1152 9.15343 13.0002 9.15343C10.8852 9.15343 9.16447 10.8693 9.16447 12.9783C9.16447 15.0874 10.8852 16.8033 13.0002 16.8033C14.0275 16.8033 14.9913 16.4026 15.7178 15.6742C16.1401 16.3297 16.8289 16.7407 17.6123 16.8034C17.6795 16.8088 17.7482 16.8116 17.8163 16.8116C18.3679 16.8116 18.9146 16.6277 19.3554 16.294C19.81 15.9499 20.1494 15.452 20.3368 14.8543C20.367 14.7578 20.4218 14.5365 20.4221 14.5351L20.4237 14.5272C20.5342 14.0472 20.5835 13.569 20.5835 12.9783C20.5835 8.80872 17.1816 5.4165 13.0002 5.4165Z"
    fill="white"/>
</svg>
