<svg xmlns="http://www.w3.org/2000/svg" width="28" height="28" viewBox="0 0 28 28" fill="none">
  <path d="M8.37256 24.9672L13.5727 21.6352C13.6996 21.5514 13.8484 21.5067 14.0006 21.5067C14.1527 21.5067 14.3015 21.5514 14.4284 21.6352L19.6286 24.9672C20.0106 25.2171 20.4536 25.3579 20.9098 25.3742C21.3659 25.3905 21.8179 25.2819 22.2168 25.06C22.6483 24.8183 23.0068 24.4649 23.2547 24.0369C23.5026 23.6089 23.6307 23.1221 23.6256 22.6275V5.369C23.6401 4.65737 23.372 3.96899 22.88 3.45466C22.388 2.94032 21.7121 2.64199 21.0006 2.625H7.00056C6.28899 2.64199 5.61316 2.94032 5.12113 3.45466C4.62911 3.96899 4.361 4.65737 4.37556 5.369V22.6275C4.37044 23.1221 4.49854 23.6089 4.74641 24.0369C4.99428 24.4649 5.35279 24.8183 5.78431 25.06C6.18322 25.2819 6.63518 25.3905 7.09136 25.3742C7.54753 25.3579 7.99057 25.2171 8.37256 24.9672ZM6.12556 5.369C6.11115 5.12148 6.19495 4.87827 6.35877 4.69217C6.5226 4.50606 6.75322 4.39209 7.00056 4.375H21.0006C21.2479 4.39209 21.4785 4.50606 21.6424 4.69217C21.8062 4.87827 21.89 5.12148 21.8756 5.369V22.6275C21.8819 22.8082 21.8388 22.9872 21.7509 23.1453C21.663 23.3033 21.5337 23.4344 21.3768 23.5244C21.2534 23.5952 21.1127 23.63 20.9705 23.6247C20.8283 23.6195 20.6905 23.5744 20.5727 23.4946L15.3726 20.1617C14.9642 19.8962 14.4876 19.7548 14.0006 19.7548C13.5135 19.7548 13.0369 19.8962 12.6286 20.1617L7.42844 23.4946C7.31064 23.5744 7.17281 23.6195 7.03064 23.6247C6.88847 23.63 6.74768 23.5952 6.62431 23.5244C6.46746 23.4344 6.33813 23.3033 6.25025 23.1453C6.16236 22.9872 6.11925 22.8082 6.12556 22.6275V5.369Z" fill="currentColor"/>
  <path d="M11.375 12.25C11.8942 12.25 12.4017 12.096 12.8334 11.8076C13.2651 11.5192 13.6015 11.1092 13.8002 10.6295C13.9989 10.1499 14.0508 9.62209 13.9496 9.11289C13.8483 8.60369 13.5983 8.13596 13.2312 7.76885C12.864 7.40173 12.3963 7.15173 11.8871 7.05044C11.3779 6.94915 10.8501 7.00114 10.3705 7.19982C9.8908 7.3985 9.48083 7.73495 9.19239 8.16663C8.90395 8.59831 8.75 9.10583 8.75 9.625C8.75 10.3212 9.02656 10.9889 9.51884 11.4812C10.0111 11.9734 10.6788 12.25 11.375 12.25ZM11.375 8.75C11.5481 8.75 11.7172 8.80132 11.8611 8.89747C12.005 8.99361 12.1172 9.13027 12.1834 9.29015C12.2496 9.45004 12.2669 9.62597 12.2332 9.79571C12.1994 9.96544 12.1161 10.1213 11.9937 10.2437C11.8713 10.3661 11.7154 10.4494 11.5457 10.4832C11.376 10.517 11.2 10.4996 11.0402 10.4334C10.8803 10.3672 10.7436 10.255 10.6475 10.1111C10.5513 9.96723 10.5 9.79806 10.5 9.625C10.5 9.39294 10.5922 9.17038 10.7563 9.00628C10.9204 8.84219 11.1429 8.75 11.375 8.75Z" fill="currentColor"/>
  <path d="M14 14.875C14 15.3942 14.154 15.9017 14.4424 16.3334C14.7308 16.765 15.1408 17.1015 15.6205 17.3002C16.1001 17.4989 16.6279 17.5508 17.1371 17.4496C17.6463 17.3483 18.114 17.0983 18.4812 16.7312C18.8483 16.364 19.0983 15.8963 19.1996 15.3871C19.3008 14.8779 19.2489 14.3501 19.0502 13.8705C18.8515 13.3908 18.515 12.9808 18.0834 12.6924C17.6517 12.404 17.1442 12.25 16.625 12.25C15.9288 12.25 15.2611 12.5266 14.7688 13.0188C14.2766 13.5111 14 14.1788 14 14.875ZM17.5 14.875C17.5 15.0481 17.4487 15.2172 17.3525 15.3611C17.2564 15.505 17.1197 15.6172 16.9598 15.6834C16.8 15.7496 16.624 15.7669 16.4543 15.7332C16.2846 15.6994 16.1287 15.6161 16.0063 15.4937C15.8839 15.3713 15.8006 15.2154 15.7668 15.0457C15.7331 14.876 15.7504 14.7 15.8166 14.5402C15.8828 14.3803 15.995 14.2436 16.1389 14.1475C16.2828 14.0513 16.4519 14 16.625 14C16.8571 14 17.0796 14.0922 17.2437 14.2563C17.4078 14.4204 17.5 14.6429 17.5 14.875Z" fill="currentColor"/>
  <path d="M10.7562 15.4936C10.9203 15.6577 11.1428 15.7498 11.3748 15.7498C11.6068 15.7498 11.8294 15.6577 11.9934 15.4936L17.2434 10.2436C17.4028 10.0786 17.491 9.85756 17.489 9.62814C17.487 9.39872 17.395 9.17926 17.2328 9.01702C17.0705 8.85479 16.8511 8.76277 16.6217 8.76078C16.3922 8.75878 16.1712 8.84698 16.0062 9.00637L10.7562 14.2564C10.5922 14.4205 10.5 14.643 10.5 14.875C10.5 15.107 10.5922 15.3295 10.7562 15.4936Z" fill="currentColor"/>
</svg>
