<svg width="18" height="19" viewBox="0 0 18 19" fill="none" xmlns="http://www.w3.org/2000/svg">
<path d="M6.09185 13.5906L14.3872 5.29525C15.1533 4.52909 15.1533 3.29 14.3872 2.52384C13.621 1.75768 12.3819 1.75768 11.6158 2.52384L3.32044 10.8192C3.22585 10.9137 3.15964 11.0462 3.15018 11.1881L2.96101 13.3825C2.93263 13.7135 3.20693 13.9784 3.52853 13.95L5.72296 13.7608C5.86484 13.7514 5.99727 13.6852 6.09185 13.5906Z" stroke="currentColor" stroke-miterlimit="10" stroke-linecap="round" stroke-linejoin="round"/>
<path d="M13.5644 6.10889L14.3873 5.28597C15.1535 4.51982 15.1535 3.28072 14.3873 2.51456C13.6211 1.7484 12.382 1.7484 11.6159 2.51456L10.793 3.33747L13.5644 6.10889Z" stroke="currentColor" stroke-miterlimit="10" stroke-linecap="round" stroke-linejoin="round"/>
<path d="M1.21094 16.6997H16.6949" stroke="currentColor" stroke-miterlimit="10" stroke-linecap="round" stroke-linejoin="round"/>
</svg>
