<svg width="49" height="16" viewBox="0 0 49 16" fill="none" xmlns="http://www.w3.org/2000/svg">
<g clip-path="url(#clip0_456_10141)">
<path d="M17.325 15.3026L19.7978 0.82335H23.7529L21.2783 15.3026H17.325ZM35.5678 1.13548C34.7844 0.842137 33.5565 0.527344 32.0231 0.527344C28.1148 0.527344 25.3621 2.49118 25.3385 5.30575C25.3165 7.38629 27.3039 8.54702 28.8041 9.23955C30.3438 9.94946 30.8612 10.402 30.8538 11.0356C30.8439 12.0063 29.6244 12.4495 28.4875 12.4495C26.9045 12.4495 26.0635 12.23 24.7645 11.6896L24.2547 11.4595L23.6998 14.7008C24.6236 15.1052 26.3318 15.4552 28.1056 15.4733C32.2632 15.4733 34.9622 13.5319 34.9929 10.5262C35.0077 8.87905 33.954 7.62572 31.6721 6.59221C30.2896 5.92239 29.443 5.47542 29.452 4.79717C29.452 4.19532 30.1686 3.55175 31.7172 3.55175C33.0104 3.53171 33.9475 3.81314 34.6774 4.10649L35.0318 4.27357L35.5678 1.13548ZM45.7459 0.823127H42.6897C41.743 0.823127 41.0344 1.08097 40.6187 2.02387L34.7447 15.2931H38.8979C38.8979 15.2931 39.5768 13.509 39.7304 13.1172C40.1843 13.1172 44.219 13.1234 44.7958 13.1234C44.9141 13.6304 45.277 15.2931 45.277 15.2931H48.9471L45.7459 0.822684V0.823127ZM40.8969 10.173C41.224 9.33874 42.4727 6.12535 42.4727 6.12535C42.4495 6.16388 42.7975 5.28703 42.9971 4.74339L43.2644 5.99177C43.2644 5.99177 44.0217 9.44805 44.18 10.1728H40.8969V10.173ZM13.9674 0.823127L10.0952 10.6974L9.68273 8.69081C8.9618 6.37764 6.7159 3.8715 4.20508 2.61684L7.74578 15.2796L11.9305 15.2749L18.1572 0.822979L13.9674 0.822906" fill="white" fill-opacity="0.56"/>
<path d="M6.48103 0.822266H0.103288L0.0527344 1.12352C5.01455 2.32204 8.2976 5.21842 9.66075 8.69897L8.27396 2.04512C8.03461 1.12826 7.34021 0.854587 6.48118 0.822635" fill="#F2AE14"/>
</g>
<defs>
<clipPath id="clip0_456_10141">
<rect width="49" height="15" fill="white" transform="translate(0 0.5)"/>
</clipPath>
</defs>
</svg>
