<svg width="18" height="18" viewBox="0 0 18 18" fill="none" xmlns="http://www.w3.org/2000/svg">
<path d="M9 18C4.03579 18 0 13.9642 0 9C0 4.03579 4.03579 0 9 0C13.9642 0 18 4.03579 18 9C18 13.9642 13.9642 18 9 18ZM9 0.757895C4.45263 0.757895 0.757895 4.45263 0.757895 9C0.757895 13.5474 4.45263 17.2421 9 17.2421C13.5474 17.2421 17.2421 13.5474 17.2421 9C17.2421 4.45263 13.5474 0.757895 9 0.757895Z" fill="white"/>
<path d="M9 18C6.36632 18 4.30106 14.04 4.30106 9C4.30106 3.96 6.36632 0 9 0C11.6337 0 13.699 3.96 13.699 9C13.699 14.04 11.6337 18 9 18ZM9 0.757895C6.8779 0.757895 5.0779 4.52842 5.0779 9C5.0779 13.4716 6.8779 17.2421 9 17.2421C11.1221 17.2421 12.9221 13.4716 12.9221 9C12.9221 4.52842 11.1221 0.757895 9 0.757895Z" fill="white"/>
<path d="M9 18C8.79157 18 8.62105 17.8295 8.62105 17.6211V0.378947C8.62105 0.170526 8.79157 0 9 0C9.20842 0 9.37894 0.170526 9.37894 0.378947V17.6211C9.37894 17.8295 9.20842 18 9 18Z" fill="white"/>
<path d="M17.6211 9.37894H0.378947C0.170526 9.37894 0 9.20842 0 9C0 8.79157 0.170526 8.62105 0.378947 8.62105H17.6211C17.8295 8.62105 18 8.79157 18 9C18 9.20842 17.8295 9.37894 17.6211 9.37894Z" fill="white"/>
<path d="M9 5.66527C6.29053 5.66527 3.75158 5.32421 1.64842 4.69895C1.44 4.64211 1.32632 4.41474 1.38316 4.22526C1.44 4.01684 1.66737 3.90316 1.85684 3.96C3.86526 4.56632 6.40421 4.90737 8.98105 4.90737C11.5579 4.90737 14.0968 4.56632 16.1053 3.96C16.3137 3.90316 16.5221 4.01684 16.5789 4.22526C16.6358 4.43369 16.5221 4.64211 16.3137 4.69895C14.2484 5.32421 11.7095 5.66527 9 5.66527Z" fill="white"/>
<path d="M16.2379 14.0589C16.2 14.0589 16.1621 14.0589 16.1242 14.04C14.1158 13.4337 11.5768 13.0926 9 13.0926C6.42316 13.0926 3.88422 13.4337 1.87579 14.04C1.66737 14.0968 1.45895 13.9832 1.40211 13.7747C1.34527 13.5663 1.45895 13.3579 1.66737 13.301C3.77053 12.6568 6.30948 12.3347 9.01895 12.3347C11.7284 12.3347 14.2674 12.6758 16.3705 13.301C16.579 13.3579 16.6926 13.5853 16.6358 13.7747C16.56 13.9453 16.4084 14.0589 16.2379 14.0589Z" fill="white"/>
</svg>
