<svg width="26" height="26" viewBox="0 0 26 26" fill="none" xmlns="http://www.w3.org/2000/svg">
  <path fill-rule="evenodd" clip-rule="evenodd"
        d="M13.0544 25.7766H13.0491C10.8825 25.7758 8.75353 25.2348 6.86268 24.2084L0 26L1.83657 19.3238C0.703684 17.3699 0.107565 15.1536 0.108537 12.8829C0.111377 5.77931 5.91879 0 13.0543 0C16.5174 0.00148749 19.7678 1.34321 22.2119 3.7785C24.6561 6.21366 26.0014 9.45058 26 12.893C25.9971 19.995 20.192 25.7737 13.0544 25.7766ZM3.10823 22.9392L3.1257 22.8757L3.23146 22.907L3.10823 22.9392ZM19.1333 15.6668C19.0786 15.6404 19.0196 15.612 18.9564 15.5806C18.6329 15.4194 17.0426 14.6408 16.7461 14.5332C16.4496 14.4258 16.2339 14.3722 16.0183 14.6943C15.8027 15.0166 15.1828 15.7418 14.9941 15.9566C14.8054 16.1714 14.6167 16.1984 14.2933 16.0372C14.2405 16.0108 14.1685 15.9797 14.0795 15.9414C13.6241 15.7448 12.7257 15.3569 11.6921 14.4394C10.7304 13.5857 10.0813 12.5316 9.89258 12.2093C9.7039 11.887 9.87247 11.7128 10.0344 11.5523C10.1313 11.4562 10.2426 11.3214 10.3538 11.1865C10.4097 11.1188 10.4656 11.0511 10.5196 10.9883C10.6571 10.8286 10.7166 10.7075 10.7976 10.543C10.8119 10.5139 10.8269 10.4835 10.8431 10.4513C10.9509 10.2364 10.897 10.0484 10.8161 9.8873C10.762 9.77947 10.4545 9.03434 10.1761 8.35995C10.0385 8.02647 9.90798 7.71029 9.8188 7.49701C9.58697 6.94281 9.35196 6.94418 9.16346 6.94528C9.13846 6.94543 9.11427 6.94557 9.09101 6.94441C8.90255 6.93498 8.68667 6.933 8.47106 6.933C8.25543 6.933 7.90497 7.01357 7.60848 7.33586C7.58947 7.35653 7.56824 7.37907 7.54516 7.40358C7.20827 7.76134 6.47637 8.53858 6.47637 10.0214C6.47637 11.5977 7.62337 13.1208 7.79456 13.3481L7.79717 13.3516C7.80775 13.3656 7.82673 13.3927 7.85386 13.4314C8.24118 13.9843 10.2905 16.9093 13.3229 18.2124C14.0947 18.5441 14.6971 18.7422 15.167 18.8905C15.9418 19.1356 16.647 19.101 17.2043 19.0181C17.8258 18.9257 19.1181 18.2394 19.3877 17.4875C19.6572 16.7354 19.6572 16.0908 19.5763 15.9566C19.5113 15.8485 19.3589 15.7753 19.1333 15.6668Z"
        fill="white" fill-opacity="0.4"/>
  <path fill-rule="evenodd" clip-rule="evenodd"
        d="M13.0491 25.7766H13.0544C20.192 25.7737 25.9971 19.995 26 12.893C26.0014 9.45058 24.6561 6.21366 22.2119 3.7785C19.7678 1.34321 16.5174 0.00148749 13.0543 0C5.91879 0 0.111377 5.77931 0.108537 12.8829C0.107565 15.1536 0.703684 17.3699 1.83657 19.3238L0 26L6.86268 24.2084C8.75353 25.2348 10.8825 25.7758 13.0491 25.7766ZM3.1257 22.8757L3.10823 22.9392L3.23146 22.907C3.19442 22.8961 3.15914 22.8856 3.1257 22.8757Z"
        fill="#25D366"/>
  <path
    d="M18.9566 15.5807C19.2801 15.7419 19.4957 15.8224 19.5765 15.9567C19.6574 16.0909 19.6574 16.7355 19.3879 17.4876C19.1183 18.2395 17.826 18.9258 17.2045 19.0182C16.6472 19.1011 15.942 19.1357 15.1672 18.8906C14.6973 18.7423 14.0949 18.5442 13.3231 18.2125C10.0783 16.8181 7.95908 13.5666 7.79736 13.3517L7.79475 13.3482C7.62357 13.1209 6.47656 11.5978 6.47656 10.0215C6.47656 8.43709 7.31219 7.65826 7.60867 7.33597C7.90516 7.01368 8.25562 6.93311 8.47125 6.93311C8.68687 6.93311 8.90275 6.93509 9.09121 6.94451C9.28975 6.95443 9.55641 6.86939 9.81899 7.49711C10.0885 8.1417 10.7354 9.72626 10.8163 9.8874C10.8972 10.0485 10.9511 10.2365 10.8433 10.4514C10.7354 10.6661 10.6815 10.8005 10.5198 10.9884C10.3581 11.1763 10.1801 11.4081 10.0346 11.5524C9.87266 11.7129 9.70409 11.8871 9.89278 12.2094C10.0815 12.5317 10.7306 13.5858 11.6923 14.4395C12.9278 15.5362 13.9701 15.8762 14.2935 16.0373C14.6169 16.1985 14.8056 16.1715 14.9943 15.9567C15.183 15.7419 15.8029 15.0167 16.0185 14.6944C16.2341 14.3723 16.4498 14.4259 16.7463 14.5333C17.0428 14.6409 18.6331 15.4196 18.9566 15.5807Z"
    fill="#FDFDFD"/>
</svg>
