<svg width="70" height="47" viewBox="0 0 70 47" fill="none" xmlns="http://www.w3.org/2000/svg">
<rect width="70" height="46.6667" rx="8.55556" fill="#0D0D0D"/>
<g clip-path="url(#clip0_1063_9215)">
<path d="M28.325 30.8026L30.7978 16.3233H34.7529L32.2783 30.8026H28.325ZM46.5678 16.6355C45.7844 16.3421 44.5565 16.0273 43.0231 16.0273C39.1148 16.0273 36.3621 17.9912 36.3385 20.8057C36.3165 22.8863 38.3039 24.047 39.8041 24.7395C41.3438 25.4495 41.8612 25.902 41.8538 26.5356C41.8439 27.5063 40.6244 27.9495 39.4875 27.9495C37.9045 27.9495 37.0635 27.73 35.7645 27.1896L35.2547 26.9595L34.6998 30.2008C35.6236 30.6052 37.3318 30.9552 39.1056 30.9733C43.2632 30.9733 45.9622 29.0319 45.9929 26.0262C46.0077 24.379 44.954 23.1257 42.6721 22.0922C41.2896 21.4224 40.443 20.9754 40.452 20.2972C40.452 19.6953 41.1686 19.0518 42.7172 19.0518C44.0104 19.0317 44.9475 19.3131 45.6774 19.6065L46.0318 19.7736L46.5678 16.6355ZM56.7459 16.3231H53.6897C52.743 16.3231 52.0344 16.581 51.6187 17.5239L45.7447 30.7931H49.8979C49.8979 30.7931 50.5768 29.009 50.7304 28.6172C51.1843 28.6172 55.219 28.6234 55.7958 28.6234C55.9141 29.1304 56.277 30.7931 56.277 30.7931H59.9471L56.7459 16.3227V16.3231ZM51.8969 25.673C52.224 24.8387 53.4727 21.6253 53.4727 21.6253C53.4495 21.6639 53.7975 20.787 53.9971 20.2434L54.2644 21.4918C54.2644 21.4918 55.0217 24.9481 55.18 25.6728H51.8969V25.673ZM24.9674 16.3231L21.0952 26.1974L20.6827 24.1908C19.9618 21.8776 17.7159 19.3715 15.2051 18.1168L18.7458 30.7796L22.9305 30.7749L29.1572 16.323L24.9674 16.3229" fill="white" fill-opacity="0.56"/>
<path d="M17.481 16.3223H11.1033L11.0527 16.6235C16.0146 17.822 19.2976 20.7184 20.6608 24.199L19.274 17.5451C19.0346 16.6283 18.3402 16.3546 17.4812 16.3226" fill="#F2AE14"/>
</g>
<defs>
<clipPath id="clip0_1063_9215">
<rect width="49" height="15" fill="white" transform="translate(11 16)"/>
</clipPath>
</defs>
</svg>
