<svg width="20" height="20" viewBox="0 0 20 20" fill="none" xmlns="http://www.w3.org/2000/svg">
  <path d="M9.99962 0.839844C9.01828 0.839568 8.04725 1.0399 7.14615 1.42854C6.24506 1.81718 5.43292 2.38593 4.75962 3.09984C3.37131 4.56691 2.59766 6.51002 2.59766 8.52984C2.59766 10.5497 3.37131 12.4928 4.75962 13.9598L9.55962 18.9798C9.61725 19.0379 9.68579 19.084 9.76131 19.1154C9.83683 19.1469 9.91782 19.163 9.99962 19.163C10.0814 19.163 10.1624 19.1469 10.2379 19.1154C10.3134 19.084 10.382 19.0379 10.4396 18.9798L15.2396 13.9598C16.6279 12.4928 17.4016 10.5497 17.4016 8.52984C17.4016 6.51002 16.6279 4.56691 15.2396 3.09984C14.5663 2.38593 13.7542 1.81718 12.8531 1.42854C11.952 1.0399 10.981 0.839568 9.99962 0.839844ZM14.3796 13.1398L9.99962 17.6998L5.61962 13.1398C4.44387 11.8928 3.78902 10.2437 3.78902 8.52984C3.78902 6.81596 4.44387 5.16685 5.61962 3.91984C6.1839 3.32557 6.86321 2.85235 7.6162 2.52897C8.3692 2.2056 9.18012 2.03883 9.99962 2.03883C10.8191 2.03883 11.63 2.2056 12.383 2.52897C13.136 2.85235 13.8153 3.32557 14.3796 3.91984C15.5554 5.16685 16.2102 6.81596 16.2102 8.52984C16.2102 10.2437 15.5554 11.8928 14.3796 13.1398Z" fill="currentColor"/>
  <path d="M9.99975 4.29986C9.27023 4.2959 8.55599 4.50887 7.94776 4.91171C7.33954 5.31455 6.86476 5.88908 6.58376 6.56232C6.30275 7.23556 6.22819 7.97714 6.36955 8.69285C6.5109 9.40855 6.8618 10.0661 7.37765 10.582C7.89351 11.0978 8.55106 11.4487 9.26677 11.5901C9.98247 11.7314 10.724 11.6569 11.3973 11.3759C12.0705 11.0948 12.6451 10.6201 13.0479 10.0118C13.4507 9.40362 13.6637 8.68938 13.6598 7.95986C13.6598 6.98917 13.2741 6.05823 12.5878 5.37185C11.9014 4.68546 10.9704 4.29986 9.99975 4.29986ZM9.99975 10.4399C9.50842 10.4438 9.02699 10.3017 8.61653 10.0317C8.20608 9.76158 7.8851 9.37565 7.69432 8.92285C7.50355 8.47006 7.45157 7.97079 7.54499 7.48841C7.63841 7.00603 7.87302 6.56227 8.21904 6.21343C8.56507 5.86459 9.00691 5.6264 9.48852 5.52908C9.97014 5.43175 10.4698 5.47968 10.9241 5.66679C11.3785 5.85389 11.767 6.17173 12.0404 6.57999C12.3138 6.98825 12.4597 7.46851 12.4598 7.95986C12.4598 8.61415 12.2012 9.24193 11.7405 9.70645C11.2797 10.171 10.654 10.4346 9.99975 10.4399Z" fill="currentColor"/>
</svg>
