<svg width="70" height="47" viewBox="0 0 70 47" fill="none" xmlns="http://www.w3.org/2000/svg">
<rect width="70" height="46.6667" rx="8.55556" fill="#0D0D0D"/>
<g clip-path="url(#clip0_1063_9226)">
<path d="M49.6658 29.4337V29.0645H49.569L49.4571 29.3178L49.3458 29.0645H49.2487V29.4337H49.3174V29.1555L49.4221 29.3955H49.4933L49.598 29.1549V29.4337H49.6661H49.6658ZM49.052 29.4337V29.1277H49.1758V29.0654H48.8594V29.1277H48.9832V29.4337H49.0513H49.052Z" fill="#F79410"/>
<path d="M38.6697 31.0173H30.2969V16.0635H38.6699L38.6697 31.0173Z" fill="#FF5F00"/>
<path d="M30.8272 23.5406C30.8272 20.5072 32.2564 17.8051 34.4819 16.0637C32.7973 14.7436 30.7137 14.0271 28.5684 14.0303C23.2838 14.0303 19 18.2881 19 23.5406C19 28.7931 23.2838 33.0509 28.5684 33.0509C30.7138 33.0541 32.7974 32.3376 34.482 31.0175C32.2567 29.2764 30.8272 26.5741 30.8272 23.5406Z" fill="#EB001B"/>
<path d="M49.9652 23.5406C49.9652 28.7931 45.6814 33.0509 40.3968 33.0509C38.2512 33.054 36.1674 32.3376 34.4824 31.0175C36.7085 29.2761 38.1377 26.5741 38.1377 23.5406C38.1377 20.5071 36.7085 17.8051 34.4824 16.0637C36.1673 14.7436 38.2511 14.0272 40.3966 14.0303C45.6813 14.0303 49.9651 18.2881 49.9651 23.5406" fill="#F79E1B"/>
</g>
<defs>
<clipPath id="clip0_1063_9226">
<rect width="31" height="20" fill="white" transform="translate(19 14)"/>
</clipPath>
</defs>
</svg>
