<svg width="31" height="20" viewBox="0 0 31 20" fill="none" xmlns="http://www.w3.org/2000/svg">
<g clip-path="url(#clip0_456_10144)">
<path d="M30.6658 15.4337V15.0645H30.569L30.4571 15.3178L30.3458 15.0645H30.2487V15.4337H30.3174V15.1555L30.4221 15.3955H30.4933L30.598 15.1549V15.4337H30.6661H30.6658ZM30.052 15.4337V15.1277H30.1758V15.0654H29.8594V15.1277H29.9832V15.4337H30.0513H30.052Z" fill="#F79410"/>
<path d="M19.6697 17.0173H11.2969V2.06348H19.6699L19.6697 17.0173Z" fill="#FF5F00"/>
<path d="M11.8272 9.54059C11.8272 6.50721 13.2564 3.80505 15.4819 2.06367C13.7973 0.743587 11.7137 0.0271336 9.56843 0.0302838C4.28381 0.0302838 0 4.28813 0 9.54059C0 14.7931 4.28381 19.0509 9.56843 19.0509C11.7138 19.0541 13.7974 18.3376 15.482 17.0175C13.2567 15.2764 11.8272 12.5741 11.8272 9.54059Z" fill="#EB001B"/>
<path d="M30.9652 9.54059C30.9652 14.7931 26.6814 19.0509 21.3968 19.0509C19.2512 19.054 17.1674 18.3376 15.4824 17.0175C17.7085 15.2761 19.1377 12.5741 19.1377 9.54059C19.1377 6.50705 17.7085 3.80505 15.4824 2.06367C17.1673 0.743627 19.2511 0.0271889 21.3966 0.0302834C26.6813 0.0302834 30.9651 4.28813 30.9651 9.54059" fill="#F79E1B"/>
</g>
<defs>
<clipPath id="clip0_456_10144">
<rect width="31" height="20" fill="white"/>
</clipPath>
</defs>
</svg>
