<svg xmlns="http://www.w3.org/2000/svg" xmlns:xlink="http://www.w3.org/1999/xlink"><defs>
<clipPath id="clip0_1063_9247">
<rect width="16" height="16" fill="white"/>
</clipPath>

<clipPath id="clip0_1063_9226">
<rect width="31" height="20" fill="white" transform="translate(19 14)"/>
</clipPath>

<linearGradient id="paint0_linear_1063_9204" x1="45.9915" y1="18.8734" x2="61.0002" y2="18.8734" gradientUnits="userSpaceOnUse">
<stop offset="0.3" stop-color="#00B4E6"/>
<stop offset="1" stop-color="#088CCB"/>
</linearGradient>
<clipPath id="clip0_1063_9204">
<rect width="51" height="14" fill="white" transform="translate(10 16)"/>
</clipPath>

    <linearGradient id="paint0_linear_31_891" x1="1733.42" y1="433.42" x2="1083.42" y2="1950" gradientUnits="userSpaceOnUse">
      <stop stop-color="#37AEE2"/>
      <stop offset="1" stop-color="#1E96C8"/>
    </linearGradient>
    <linearGradient id="paint1_linear_31_891" x1="870.956" y1="525.854" x2="1009.86" y2="975.163" gradientUnits="userSpaceOnUse">
      <stop stop-color="#EFF7FC"/>
      <stop offset="1" stop-color="white"/>
    </linearGradient>
  
<clipPath id="clip0_1058_8710">
<rect width="16" height="16" fill="white"/>
</clipPath>

<clipPath id="clip0_1063_9215">
<rect width="49" height="15" fill="white" transform="translate(11 16)"/>
</clipPath>
</defs><symbol id="icon-arrow-back" viewBox="0 0 28 28"><g fill="none">
<path d="M3.8623 14L9.89679 8.20691M3.8623 14L9.89679 19.7931M3.8623 14H23.1726" stroke="currentColor" stroke-width="1.5"/>
</g></symbol><symbol id="icon-arrow-down" viewBox="0 0 14 14"><g fill="none">
  <path d="M10.8887 5.44434L6.99978 9.33323L3.11089 5.44434" stroke="currentColor" stroke-width="1.5"/>
</g></symbol><symbol id="icon-basket" viewBox="0 0 24 24"><g fill="none">
<path d="M21.408 7.48799H2.40002V18.352C2.40002 19.4566 3.29546 20.352 4.40002 20.352H19.408C20.5126 20.352 21.408 19.4566 21.408 18.352V7.48799Z" stroke="white" stroke-width="1.2" stroke-miterlimit="10"/>
<path d="M7.39209 9.69599V6.91199C7.39209 4.41599 9.40809 2.39999 11.9041 2.39999C14.4001 2.39999 16.4161 4.41599 16.4161 6.91199V9.69599" stroke="white" stroke-width="1.2" stroke-miterlimit="10"/>
</g></symbol><symbol id="icon-cart" viewBox="0 0 20 20"><g fill="none">
  <path d="M17.84 6.23999H2V14.96C2 16.0646 2.89543 16.96 4 16.96H15.84C16.9446 16.96 17.84 16.0646 17.84 14.96V6.23999Z" stroke="currentColor" stroke-width="1.2" stroke-miterlimit="10"/>
  <path d="M6.16016 8.08V5.76C6.16016 3.68 7.84016 2 9.92016 2C12.0002 2 13.6802 3.68 13.6802 5.76V8.08" stroke="currentColor" stroke-width="1.2" stroke-miterlimit="10"/>
</g></symbol><symbol id="icon-cdek" viewBox="0 0 50 14"><g fill="none">
  <path fill-rule="evenodd" clip-rule="evenodd" d="M7.67182 10.5977H5.4947C2.09881 10.5977 4.56595 3.38262 7.42494 3.38262H10.8646C11.416 3.38262 12.3883 3.48407 12.8674 2.11958L13.6076 0H8.89081C6.33651 0 4.34821 0.899987 2.91147 2.40999C0.429676 4.99406 -0.411913 9.0299 0.183026 10.9606C0.749043 12.7463 2.28742 13.9221 4.69649 13.9511L6.56869 13.9657H8.87635L9.44236 12.2672C9.86317 11.0622 8.91974 10.5977 7.67182 10.5977ZM34.1722 7.60718L34.8835 5.29887H27.2931C26.0306 5.29887 25.4645 5.64728 25.2468 6.37317L24.5357 8.68149H32.126C33.3887 8.68149 33.9546 8.33305 34.1722 7.60718ZM23.4038 11.672L22.6925 13.9801H30.2827C31.5308 13.9801 32.1113 13.6319 32.329 12.906L33.0403 10.5977H25.45C24.202 10.5977 23.6359 10.9462 23.4038 11.672ZM35.9429 2.32271L36.654 0.014612H29.0637C27.8012 0.014612 27.2351 0.362833 27.0173 1.08871L26.3063 3.39702H33.8966C35.1448 3.39702 35.7105 3.04859 35.9429 2.32271ZM24.4776 2.78743C24.1585 0.63882 23.0119 0.014612 20.2254 0.014612H15.1459L12.1853 8.68149H14.0575C15.1748 8.68149 15.7409 8.69589 16.336 7.09904L17.5695 3.38262H19.4561C21.0671 3.38262 20.7042 5.40053 19.8916 7.3602C19.1659 9.08795 17.9033 10.6121 16.3794 10.6121H13.2301C11.9675 10.6121 11.3871 10.9606 11.1549 11.6864L10.3711 13.9947H12.6786L14.9427 13.9801C16.9454 13.9657 18.5854 13.8206 20.5012 12.0929C22.5329 10.2493 24.8841 5.5166 24.4776 2.78743ZM49.9913 0H45.594L41.4577 4.39867C40.9788 4.90681 40.4853 5.41495 40.0065 6.01012H39.9629L42.0236 0H38.4389L33.6065 13.9801H37.1909L38.7292 9.58146L40.3256 8.23138L41.5885 12.2092C41.98 13.4432 42.3867 13.9801 43.2575 13.9801H46.0002L43.1849 6.16982L49.9913 0Z" fill="currentColor"/>
</g></symbol><symbol id="icon-check" viewBox="0 0 16 16"><g fill="none">
  <path d="M1.74951 8.32793L6.06575 12.6442L14.8792 3.82959" stroke="currentColor" stroke-width="2" stroke-miterlimit="10"/>
</g></symbol><symbol id="icon-close" viewBox="0 0 30 30"><g fill="none">
<path fill-rule="evenodd" clip-rule="evenodd" d="M7.52449 6.11028C7.13397 5.71975 6.5008 5.71975 6.11028 6.11028C5.71975 6.5008 5.71975 7.13397 6.11028 7.52449L13.5858 15L6.11028 22.4756C5.71975 22.8661 5.71975 23.4993 6.11028 23.8898C6.5008 24.2803 7.13397 24.2803 7.52449 23.8898L15 16.4143L22.4756 23.8898C22.8661 24.2803 23.4993 24.2803 23.8898 23.8898C24.2803 23.4993 24.2803 22.8661 23.8898 22.4756L16.4143 15L23.8898 7.52449C24.2803 7.13397 24.2803 6.5008 23.8898 6.11028C23.4993 5.71975 22.8661 5.71975 22.4756 6.11028L15 13.5858L7.52449 6.11028Z" fill="currentColor"/>
</g></symbol><symbol id="icon-done" viewBox="0 0 40 40"><g fill="none">
  <circle cx="20" cy="20" r="19" stroke="currentColor" stroke-width="2"/>
  <path d="M11 20.8586L17.1414 27L29.1414 15" stroke="currentColor" stroke-width="2"/>
</g></symbol><symbol id="icon-edit" viewBox="0 0 18 19"><g fill="none">
<path d="M6.09185 13.5906L14.3872 5.29525C15.1533 4.52909 15.1533 3.29 14.3872 2.52384C13.621 1.75768 12.3819 1.75768 11.6158 2.52384L3.32044 10.8192C3.22585 10.9137 3.15964 11.0462 3.15018 11.1881L2.96101 13.3825C2.93263 13.7135 3.20693 13.9784 3.52853 13.95L5.72296 13.7608C5.86484 13.7514 5.99727 13.6852 6.09185 13.5906Z" stroke="currentColor" stroke-miterlimit="10" stroke-linecap="round" stroke-linejoin="round"/>
<path d="M13.5644 6.10889L14.3873 5.28597C15.1535 4.51982 15.1535 3.28072 14.3873 2.51456C13.6211 1.7484 12.382 1.7484 11.6159 2.51456L10.793 3.33747L13.5644 6.10889Z" stroke="currentColor" stroke-miterlimit="10" stroke-linecap="round" stroke-linejoin="round"/>
<path d="M1.21094 16.6997H16.6949" stroke="currentColor" stroke-miterlimit="10" stroke-linecap="round" stroke-linejoin="round"/>
</g></symbol><symbol id="icon-error" viewBox="0 0 40 40"><g fill="none">
  <circle cx="20" cy="20" r="19" stroke="currentColor" stroke-width="2"/>
  <path d="M14 14L26.0012 26.0012" stroke="currentColor" stroke-width="2" stroke-linecap="round" stroke-linejoin="round"/>
  <path d="M26.0012 14L14 26.0012" stroke="currentColor" stroke-width="2" stroke-linecap="round" stroke-linejoin="round"/>
</g></symbol><symbol id="icon-globus" viewBox="0 0 18 18"><g fill="none">
<path d="M9 18C4.03579 18 0 13.9642 0 9C0 4.03579 4.03579 0 9 0C13.9642 0 18 4.03579 18 9C18 13.9642 13.9642 18 9 18ZM9 0.757895C4.45263 0.757895 0.757895 4.45263 0.757895 9C0.757895 13.5474 4.45263 17.2421 9 17.2421C13.5474 17.2421 17.2421 13.5474 17.2421 9C17.2421 4.45263 13.5474 0.757895 9 0.757895Z" fill="white"/>
<path d="M9 18C6.36632 18 4.30106 14.04 4.30106 9C4.30106 3.96 6.36632 0 9 0C11.6337 0 13.699 3.96 13.699 9C13.699 14.04 11.6337 18 9 18ZM9 0.757895C6.8779 0.757895 5.0779 4.52842 5.0779 9C5.0779 13.4716 6.8779 17.2421 9 17.2421C11.1221 17.2421 12.9221 13.4716 12.9221 9C12.9221 4.52842 11.1221 0.757895 9 0.757895Z" fill="white"/>
<path d="M9 18C8.79157 18 8.62105 17.8295 8.62105 17.6211V0.378947C8.62105 0.170526 8.79157 0 9 0C9.20842 0 9.37894 0.170526 9.37894 0.378947V17.6211C9.37894 17.8295 9.20842 18 9 18Z" fill="white"/>
<path d="M17.6211 9.37894H0.378947C0.170526 9.37894 0 9.20842 0 9C0 8.79157 0.170526 8.62105 0.378947 8.62105H17.6211C17.8295 8.62105 18 8.79157 18 9C18 9.20842 17.8295 9.37894 17.6211 9.37894Z" fill="white"/>
<path d="M9 5.66527C6.29053 5.66527 3.75158 5.32421 1.64842 4.69895C1.44 4.64211 1.32632 4.41474 1.38316 4.22526C1.44 4.01684 1.66737 3.90316 1.85684 3.96C3.86526 4.56632 6.40421 4.90737 8.98105 4.90737C11.5579 4.90737 14.0968 4.56632 16.1053 3.96C16.3137 3.90316 16.5221 4.01684 16.5789 4.22526C16.6358 4.43369 16.5221 4.64211 16.3137 4.69895C14.2484 5.32421 11.7095 5.66527 9 5.66527Z" fill="white"/>
<path d="M16.2379 14.0589C16.2 14.0589 16.1621 14.0589 16.1242 14.04C14.1158 13.4337 11.5768 13.0926 9 13.0926C6.42316 13.0926 3.88422 13.4337 1.87579 14.04C1.66737 14.0968 1.45895 13.9832 1.40211 13.7747C1.34527 13.5663 1.45895 13.3579 1.66737 13.301C3.77053 12.6568 6.30948 12.3347 9.01895 12.3347C11.7284 12.3347 14.2674 12.6758 16.3705 13.301C16.579 13.3579 16.6926 13.5853 16.6358 13.7747C16.56 13.9453 16.4084 14.0589 16.2379 14.0589Z" fill="white"/>
</g></symbol><symbol id="icon-info" viewBox="0 0 16 16"><g fill="none">
<g clip-path="url(#clip0_1063_9247)">
<circle cx="8" cy="8" r="7.4" stroke="#B88F64" stroke-width="1.2"/>
<path d="M7.19922 12H8.79922V7.2H7.19922V12ZM7.99922 4C7.59922 4 7.19922 4.4 7.19922 4.8C7.19922 5.2 7.59922 5.6 7.99922 5.6C8.39922 5.6 8.79922 5.2 8.79922 4.8C8.79922 4.4 8.39922 4 7.99922 4Z" fill="#B88F64"/>
</g>

</g></symbol><symbol id="icon-inst" viewBox="0 0 28 28"><g fill="none">
<path d="M14.0002 3.47675C17.4224 3.47675 17.8502 3.47675 19.2191 3.5623C20.0319 3.5623 20.8446 3.73341 21.5719 3.99008C22.128 4.20397 22.6413 4.54619 23.0691 4.93119C23.4969 5.35897 23.8391 5.82953 24.0102 6.38564C24.3096 7.15564 24.438 7.96841 24.438 8.78119C24.5235 10.1501 24.5235 10.5351 24.5235 13.9573C24.5235 17.3795 24.5235 17.8073 24.438 19.1334C24.438 19.9462 24.2669 20.759 24.0102 21.529C23.5824 22.6412 22.6841 23.5395 21.5719 23.9673C20.8019 24.2667 19.9891 24.3951 19.2191 24.4379C17.8502 24.4806 17.4224 24.5234 14.0002 24.5234C10.578 24.5234 10.193 24.5234 8.82409 24.4379C8.01131 24.4379 7.19854 24.2667 6.42854 23.9673C5.87243 23.7534 5.35909 23.454 4.97409 23.0262C4.54631 22.5984 4.20409 22.0851 4.03298 21.529C3.73354 20.759 3.6052 19.9462 3.56243 19.1334C3.47687 17.8501 3.47687 17.4223 3.47687 14.0001C3.47687 10.5779 3.47687 10.1929 3.56243 8.82397C3.56243 8.01119 3.73354 7.19841 4.03298 6.42841C4.20409 5.8723 4.50354 5.35897 4.97409 4.97397C5.40187 4.54619 5.87243 4.20397 6.42854 3.99008C7.19854 3.69064 8.01131 3.5623 8.82409 3.5623C10.1502 3.47675 10.578 3.47675 14.0002 3.47675ZM14.0002 1.16675C10.5352 1.16675 10.1074 1.16675 8.69576 1.2523C7.62631 1.2523 6.59965 1.46619 5.57298 1.85119C4.71743 2.15064 3.94743 2.66397 3.30576 3.34841C2.66409 3.99008 2.15076 4.76008 1.80854 5.61564C1.42354 6.59952 1.25243 7.66897 1.20965 8.73841C1.16687 10.0645 1.16687 10.4923 1.16687 14.0001C1.16687 17.5079 1.16687 17.9356 1.25243 19.3045C1.2952 20.374 1.46631 21.4006 1.85131 22.4273C2.19354 23.2829 2.70687 24.0529 3.34854 24.6945C3.9902 25.3362 4.7602 25.8495 5.61576 26.149C6.59965 26.534 7.66909 26.7479 8.73854 26.7479C10.0646 26.7906 10.5352 26.8334 14.0002 26.8334C17.4652 26.8334 17.893 26.8334 19.3046 26.7479C20.3741 26.7051 21.4435 26.534 22.4274 26.149C23.283 25.8495 24.053 25.3362 24.6946 24.6945C25.3363 24.0529 25.8496 23.2829 26.1919 22.4273C26.5769 21.4434 26.748 20.374 26.7908 19.3045C26.8335 17.9356 26.8335 17.4651 26.8335 14.0001C26.8335 10.5351 26.8335 10.0645 26.748 8.69564C26.748 7.62619 26.5341 6.55675 26.1491 5.57286C25.4646 3.86175 24.1385 2.49286 22.3846 1.80841C21.4008 1.42341 20.3313 1.20953 19.2619 1.20953C17.9358 1.16675 17.4652 1.16675 14.0002 1.16675ZM14.0002 7.4123C10.193 7.4123 7.15576 10.4923 7.15576 14.2567C7.15576 18.064 10.2358 21.1012 14.0002 21.1012C17.8074 21.1012 20.8446 18.0212 20.8446 14.2567C20.8446 10.4923 17.8074 7.4123 14.0002 7.4123ZM14.0002 18.2779C11.6474 18.2779 9.72242 16.3529 9.72242 14.0001C9.72242 11.6473 11.6474 9.7223 14.0002 9.7223C16.353 9.7223 18.278 11.6473 18.278 14.0001C18.278 16.3529 16.353 18.2779 14.0002 18.2779ZM20.8446 5.61564C21.7002 5.61564 22.3846 6.30008 22.3846 7.15564C22.3846 8.01119 21.7002 8.69564 20.8446 8.69564C19.9891 8.69564 19.3046 8.01119 19.3046 7.15564C19.3046 6.30008 19.9891 5.61564 20.8446 5.61564Z" fill="white"/>
</g></symbol><symbol id="icon-jcb" viewBox="0 0 70 47"><g fill="none">
<rect width="70" height="46.6667" rx="8.55556" fill="#0D0D0D"/>
<path d="M45.0949 11.2109C42.9053 11.2109 41.1098 12.9846 41.1098 15.1961V19.3345H46.7372C46.8686 19.3345 47.0218 19.3345 47.1313 19.3564C48.4013 19.4221 49.3429 20.079 49.3429 21.2176C49.3429 22.1154 48.7079 22.8818 47.5255 23.035V23.0788C48.8174 23.1664 49.8027 23.889 49.8027 25.0057C49.8027 26.21 48.7079 26.9983 47.2627 26.9983H41.0879V35.1H46.9343C49.1239 35.1 50.9194 33.3264 50.9194 31.1149V11.2109H45.0949Z" fill="#40A737"/>
<path d="M43.0568 25.7293H45.356C45.3888 25.7293 45.4436 25.7239 45.4983 25.7184C45.553 25.7129 45.6078 25.7074 45.6406 25.7074C46.0786 25.6199 46.4508 25.2257 46.4508 24.6783C46.4508 24.1528 46.0786 23.7587 45.6406 23.6492C45.5749 23.6273 45.4436 23.6273 45.356 23.6273H43.0568V25.7293Z" fill="#40A737"/>
<path d="M45.356 20.5388C45.7939 20.6044 46.1661 20.9548 46.1661 21.4803C46.1661 22.0058 45.7939 22.3562 45.356 22.4219C45.3341 22.4438 45.2027 22.4438 45.137 22.4438H43.0568V20.5169H45.137C45.1732 20.5169 45.2226 20.5235 45.267 20.5295C45.3033 20.5343 45.3363 20.5388 45.356 20.5388Z" fill="#40A737"/>
<path d="M23.0657 11.2109C20.876 11.2109 19.0805 12.9846 19.0805 15.1961V25.0276C20.1972 25.575 21.3577 25.9254 22.5182 25.9254C23.8977 25.9254 24.6422 25.0933 24.6422 23.9547V19.3126H28.0581V23.9328C28.0581 25.7283 26.9413 27.1954 23.1532 27.1954C20.8541 27.1954 19.0586 26.6918 19.0586 26.6918V35.0781H24.905C27.0946 35.0781 28.8901 33.3045 28.8901 31.0929V11.2109H23.0657Z" fill="#0066B1"/>
<path d="M34.077 11.2109C31.8873 11.2109 30.0918 12.9846 30.0918 15.1961V20.4075C31.099 19.5535 32.8508 19.0061 35.6754 19.1375C37.1863 19.2032 38.8066 19.6192 38.8066 19.6192V21.3052C37.9964 20.8892 37.033 20.5169 35.7849 20.4294C33.639 20.2761 32.3471 21.3271 32.3471 23.1664C32.3471 25.0276 33.639 26.0787 35.7849 25.9035C37.033 25.8159 37.9964 25.4218 38.8066 25.0276V26.7137C38.8066 26.7137 37.2082 27.1297 35.6754 27.1954C32.8508 27.3268 31.099 26.7793 30.0918 25.9254V35.1219H35.9382C38.1278 35.1219 39.9233 33.3483 39.9233 31.1367V11.2109H34.077Z" fill="#DC0436"/>
</g></symbol><symbol id="icon-location" viewBox="0 0 20 20"><g fill="none">
  <path d="M9.99962 0.839844C9.01828 0.839568 8.04725 1.0399 7.14615 1.42854C6.24506 1.81718 5.43292 2.38593 4.75962 3.09984C3.37131 4.56691 2.59766 6.51002 2.59766 8.52984C2.59766 10.5497 3.37131 12.4928 4.75962 13.9598L9.55962 18.9798C9.61725 19.0379 9.68579 19.084 9.76131 19.1154C9.83683 19.1469 9.91782 19.163 9.99962 19.163C10.0814 19.163 10.1624 19.1469 10.2379 19.1154C10.3134 19.084 10.382 19.0379 10.4396 18.9798L15.2396 13.9598C16.6279 12.4928 17.4016 10.5497 17.4016 8.52984C17.4016 6.51002 16.6279 4.56691 15.2396 3.09984C14.5663 2.38593 13.7542 1.81718 12.8531 1.42854C11.952 1.0399 10.981 0.839568 9.99962 0.839844ZM14.3796 13.1398L9.99962 17.6998L5.61962 13.1398C4.44387 11.8928 3.78902 10.2437 3.78902 8.52984C3.78902 6.81596 4.44387 5.16685 5.61962 3.91984C6.1839 3.32557 6.86321 2.85235 7.6162 2.52897C8.3692 2.2056 9.18012 2.03883 9.99962 2.03883C10.8191 2.03883 11.63 2.2056 12.383 2.52897C13.136 2.85235 13.8153 3.32557 14.3796 3.91984C15.5554 5.16685 16.2102 6.81596 16.2102 8.52984C16.2102 10.2437 15.5554 11.8928 14.3796 13.1398Z" fill="currentColor"/>
  <path d="M9.99975 4.29986C9.27023 4.2959 8.55599 4.50887 7.94776 4.91171C7.33954 5.31455 6.86476 5.88908 6.58376 6.56232C6.30275 7.23556 6.22819 7.97714 6.36955 8.69285C6.5109 9.40855 6.8618 10.0661 7.37765 10.582C7.89351 11.0978 8.55106 11.4487 9.26677 11.5901C9.98247 11.7314 10.724 11.6569 11.3973 11.3759C12.0705 11.0948 12.6451 10.6201 13.0479 10.0118C13.4507 9.40362 13.6637 8.68938 13.6598 7.95986C13.6598 6.98917 13.2741 6.05823 12.5878 5.37185C11.9014 4.68546 10.9704 4.29986 9.99975 4.29986ZM9.99975 10.4399C9.50842 10.4438 9.02699 10.3017 8.61653 10.0317C8.20608 9.76158 7.8851 9.37565 7.69432 8.92285C7.50355 8.47006 7.45157 7.97079 7.54499 7.48841C7.63841 7.00603 7.87302 6.56227 8.21904 6.21343C8.56507 5.86459 9.00691 5.6264 9.48852 5.52908C9.97014 5.43175 10.4698 5.47968 10.9241 5.66679C11.3785 5.85389 11.767 6.17173 12.0404 6.57999C12.3138 6.98825 12.4597 7.46851 12.4598 7.95986C12.4598 8.61415 12.2012 9.24193 11.7405 9.70645C11.2797 10.171 10.654 10.4346 9.99975 10.4399Z" fill="currentColor"/>
</g></symbol><symbol id="icon-mail-filled" viewBox="0 0 26 26"><g fill="none">
  <path d="M0 13C0 5.8203 5.8203 0 13 0C20.1797 0 26 5.8203 26 13C26 20.1797 20.1797 26 13 26C5.8203 26 0 20.1797 0 13ZM12.9999 5.41667C8.81846 5.41667 5.41667 8.80888 5.41667 12.9785C5.41667 17.1481 8.81846 20.5404 12.9999 20.5404C14.5318 20.5404 16.0089 20.0856 17.2714 19.2252L17.2933 19.2102L16.2717 18.0258L16.2543 18.037C15.2824 18.6605 14.157 18.99 12.9999 18.99C9.67576 18.99 6.97141 16.2933 6.97141 12.9785C6.97141 9.66371 9.67576 6.96698 12.9999 6.96698C16.324 6.96698 19.0284 9.66371 19.0284 12.9785C19.0284 13.408 18.9806 13.8429 18.8865 14.2708C18.6957 15.0509 18.1481 15.2899 17.7366 15.2583C17.323 15.225 16.8388 14.9309 16.8356 14.2115V12.9785C16.8356 10.8694 15.1149 9.15359 12.9999 9.15359C10.8849 9.15359 9.16415 10.8694 9.16415 12.9785C9.16415 15.0876 10.8849 16.8035 12.9999 16.8035C14.0272 16.8035 14.991 16.4027 15.7175 15.6744C16.1398 16.3298 16.8286 16.7409 17.612 16.8036C17.6792 16.809 17.7478 16.8118 17.816 16.8118C18.3676 16.8118 18.9143 16.6279 19.3551 16.2942C19.8097 15.9501 20.149 15.4522 20.3364 14.8545C20.3667 14.758 20.4215 14.5367 20.4218 14.5353L20.4234 14.5273C20.5339 14.0474 20.5832 13.5692 20.5832 12.9785C20.5832 8.80888 17.1813 5.41667 12.9999 5.41667Z" fill="white"/>
  <path fill-rule="evenodd" clip-rule="evenodd" d="M15.2807 12.9786C15.2807 14.2329 14.2575 15.2532 12.9997 15.2532C11.742 15.2532 10.7188 14.2329 10.7188 12.9786C10.7188 11.7244 11.742 10.7041 12.9997 10.7041C14.2575 10.7041 15.2807 11.7244 15.2807 12.9786Z" fill="white"/>
  <path d="M0 13C0 5.8203 5.8203 0 13 0C20.1797 0 26 5.8203 26 13C26 20.1797 20.1797 26 13 26C5.8203 26 0 20.1797 0 13Z" fill="#4777D5"/>
  <path d="M15.2812 12.9783C15.2812 14.2326 14.258 15.2529 13.0002 15.2529C11.7424 15.2529 10.7192 14.2326 10.7192 12.9783C10.7192 11.7241 11.7424 10.7038 13.0002 10.7038C14.258 10.7038 15.2812 11.7241 15.2812 12.9783ZM13.0002 5.4165C8.81879 5.4165 5.41699 8.80872 5.41699 12.9783C5.41699 17.148 8.81879 20.5402 13.0002 20.5402C14.5321 20.5402 16.0092 20.0854 17.2717 19.225L17.2936 19.21L16.272 18.0256L16.2546 18.0368C15.2827 18.6603 14.1573 18.9899 13.0002 18.9899C9.67608 18.9899 6.97174 16.2931 6.97174 12.9783C6.97174 9.66355 9.67608 6.96682 13.0002 6.96682C16.3244 6.96682 19.0287 9.66355 19.0287 12.9783C19.0287 13.4079 18.9809 13.8428 18.8868 14.2706C18.696 15.0507 18.1484 15.2898 17.7369 15.2581C17.3233 15.2248 16.8391 14.9307 16.836 14.2113V12.9783C16.836 10.8693 15.1152 9.15343 13.0002 9.15343C10.8852 9.15343 9.16447 10.8693 9.16447 12.9783C9.16447 15.0874 10.8852 16.8033 13.0002 16.8033C14.0275 16.8033 14.9913 16.4026 15.7178 15.6742C16.1401 16.3297 16.8289 16.7407 17.6123 16.8034C17.6795 16.8088 17.7482 16.8116 17.8163 16.8116C18.3679 16.8116 18.9146 16.6277 19.3554 16.294C19.81 15.9499 20.1494 15.452 20.3368 14.8543C20.367 14.7578 20.4218 14.5365 20.4221 14.5351L20.4237 14.5272C20.5342 14.0472 20.5835 13.569 20.5835 12.9783C20.5835 8.80872 17.1816 5.4165 13.0002 5.4165Z" fill="white"/>
</g></symbol><symbol id="icon-mail" viewBox="0 0 26 26"><g fill="none">
  <path d="M0 13C0 5.8203 5.8203 0 13 0C20.1797 0 26 5.8203 26 13C26 20.1797 20.1797 26 13 26C5.8203 26 0 20.1797 0 13ZM12.9999 5.41667C8.81846 5.41667 5.41667 8.80888 5.41667 12.9785C5.41667 17.1481 8.81846 20.5404 12.9999 20.5404C14.5318 20.5404 16.0089 20.0856 17.2714 19.2252L17.2933 19.2102L16.2717 18.0258L16.2543 18.037C15.2824 18.6605 14.157 18.99 12.9999 18.99C9.67576 18.99 6.97141 16.2933 6.97141 12.9785C6.97141 9.66371 9.67576 6.96698 12.9999 6.96698C16.324 6.96698 19.0284 9.66371 19.0284 12.9785C19.0284 13.408 18.9806 13.8429 18.8865 14.2708C18.6957 15.0509 18.1481 15.2899 17.7366 15.2583C17.323 15.225 16.8388 14.9309 16.8356 14.2115V12.9785C16.8356 10.8694 15.1149 9.15359 12.9999 9.15359C10.8849 9.15359 9.16415 10.8694 9.16415 12.9785C9.16415 15.0876 10.8849 16.8035 12.9999 16.8035C14.0272 16.8035 14.991 16.4027 15.7175 15.6744C16.1398 16.3298 16.8286 16.7409 17.612 16.8036C17.6792 16.809 17.7478 16.8118 17.816 16.8118C18.3676 16.8118 18.9143 16.6279 19.3551 16.2942C19.8097 15.9501 20.149 15.4522 20.3364 14.8545C20.3667 14.758 20.4215 14.5367 20.4218 14.5353L20.4234 14.5273C20.5339 14.0474 20.5832 13.5692 20.5832 12.9785C20.5832 8.80888 17.1813 5.41667 12.9999 5.41667Z" fill="white" fill-opacity="0.4"/>
  <path fill-rule="evenodd" clip-rule="evenodd" d="M15.2809 12.9786C15.2809 14.2329 14.2576 15.2532 12.9999 15.2532C11.7421 15.2532 10.7189 14.2329 10.7189 12.9786C10.7189 11.7244 11.7421 10.7041 12.9999 10.7041C14.2576 10.7041 15.2809 11.7244 15.2809 12.9786Z" fill="white" fill-opacity="0.4"/>
</g></symbol><symbol id="icon-master" viewBox="0 0 70 47"><g fill="none">
<rect width="70" height="46.6667" rx="8.55556" fill="#0D0D0D"/>
<g clip-path="url(#clip0_1063_9226)">
<path d="M49.6658 29.4337V29.0645H49.569L49.4571 29.3178L49.3458 29.0645H49.2487V29.4337H49.3174V29.1555L49.4221 29.3955H49.4933L49.598 29.1549V29.4337H49.6661H49.6658ZM49.052 29.4337V29.1277H49.1758V29.0654H48.8594V29.1277H48.9832V29.4337H49.0513H49.052Z" fill="#F79410"/>
<path d="M38.6697 31.0173H30.2969V16.0635H38.6699L38.6697 31.0173Z" fill="#FF5F00"/>
<path d="M30.8272 23.5406C30.8272 20.5072 32.2564 17.8051 34.4819 16.0637C32.7973 14.7436 30.7137 14.0271 28.5684 14.0303C23.2838 14.0303 19 18.2881 19 23.5406C19 28.7931 23.2838 33.0509 28.5684 33.0509C30.7138 33.0541 32.7974 32.3376 34.482 31.0175C32.2567 29.2764 30.8272 26.5741 30.8272 23.5406Z" fill="#EB001B"/>
<path d="M49.9652 23.5406C49.9652 28.7931 45.6814 33.0509 40.3968 33.0509C38.2512 33.054 36.1674 32.3376 34.4824 31.0175C36.7085 29.2761 38.1377 26.5741 38.1377 23.5406C38.1377 20.5071 36.7085 17.8051 34.4824 16.0637C36.1673 14.7436 38.2511 14.0272 40.3966 14.0303C45.6813 14.0303 49.9651 18.2881 49.9651 23.5406" fill="#F79E1B"/>
</g>

</g></symbol><symbol id="icon-minus" viewBox="0 0 12 12"><g fill="none">
  <path d="M0 5.25H12V6.75H0V5.25Z" fill="currentColor"/>
</g></symbol><symbol id="icon-mir" viewBox="0 0 70 47"><g fill="none">
<rect width="70" height="46.6667" rx="8.55556" fill="#0D0D0D"/>
<g clip-path="url(#clip0_1063_9204)">
<path fill-rule="evenodd" clip-rule="evenodd" d="M23.7429 16V16.0061C23.7366 16.0061 21.7508 16 21.2213 17.8402C20.7358 19.5275 19.3679 24.186 19.33 24.3144H18.9518C18.9518 24.3144 17.5523 19.552 17.0606 17.8341C16.531 15.9939 14.5389 16 14.5389 16H10V30H14.5389V21.6856H14.7281H14.9172L17.5649 30H20.7169L23.3646 21.6917H23.7429V30H28.2818V16H23.7429Z" fill="#4DB45E"/>
<path fill-rule="evenodd" clip-rule="evenodd" d="M40.3229 16C40.3229 16 38.9927 16.1162 38.3686 17.4672L35.1535 24.3144H34.7753V16H30.2363V30H34.5231C34.5231 30 35.9163 29.8777 36.5404 28.5328L39.6924 21.6856H40.0707V30H44.6096V16H40.3229Z" fill="#4DB45E"/>
<path fill-rule="evenodd" clip-rule="evenodd" d="M46.627 22.3584V30.0003H51.1659V25.5374H56.0831C58.2265 25.5374 60.042 24.2108 60.7166 22.3584H46.627Z" fill="#4DB45E"/>
<path fill-rule="evenodd" clip-rule="evenodd" d="M56.0831 16H45.9902C46.4946 18.6655 48.556 20.8052 51.2226 21.5022C51.8278 21.6611 52.4645 21.7467 53.1201 21.7467H60.8994C60.9687 21.4288 61.0002 21.1048 61.0002 20.7686C61.0002 18.1336 58.8001 16 56.0831 16Z" fill="url(#paint0_linear_1063_9204)"/>
</g>

</g></symbol><symbol id="icon-plus" viewBox="0 0 12 12"><g fill="none">
    <path d="M0.000244141 6L12.0002 6" stroke="currentColor" stroke-width="1.2" stroke-miterlimit="10"/>
    <path d="M6.00049 0L6.00049 12" stroke="currentColor" stroke-width="1.2" stroke-miterlimit="10"/>
</g></symbol><symbol id="icon-sale" viewBox="0 0 28 28"><g fill="none">
  <path d="M8.37256 24.9672L13.5727 21.6352C13.6996 21.5514 13.8484 21.5067 14.0006 21.5067C14.1527 21.5067 14.3015 21.5514 14.4284 21.6352L19.6286 24.9672C20.0106 25.2171 20.4536 25.3579 20.9098 25.3742C21.3659 25.3905 21.8179 25.2819 22.2168 25.06C22.6483 24.8183 23.0068 24.4649 23.2547 24.0369C23.5026 23.6089 23.6307 23.1221 23.6256 22.6275V5.369C23.6401 4.65737 23.372 3.96899 22.88 3.45466C22.388 2.94032 21.7121 2.64199 21.0006 2.625H7.00056C6.28899 2.64199 5.61316 2.94032 5.12113 3.45466C4.62911 3.96899 4.361 4.65737 4.37556 5.369V22.6275C4.37044 23.1221 4.49854 23.6089 4.74641 24.0369C4.99428 24.4649 5.35279 24.8183 5.78431 25.06C6.18322 25.2819 6.63518 25.3905 7.09136 25.3742C7.54753 25.3579 7.99057 25.2171 8.37256 24.9672ZM6.12556 5.369C6.11115 5.12148 6.19495 4.87827 6.35877 4.69217C6.5226 4.50606 6.75322 4.39209 7.00056 4.375H21.0006C21.2479 4.39209 21.4785 4.50606 21.6424 4.69217C21.8062 4.87827 21.89 5.12148 21.8756 5.369V22.6275C21.8819 22.8082 21.8388 22.9872 21.7509 23.1453C21.663 23.3033 21.5337 23.4344 21.3768 23.5244C21.2534 23.5952 21.1127 23.63 20.9705 23.6247C20.8283 23.6195 20.6905 23.5744 20.5727 23.4946L15.3726 20.1617C14.9642 19.8962 14.4876 19.7548 14.0006 19.7548C13.5135 19.7548 13.0369 19.8962 12.6286 20.1617L7.42844 23.4946C7.31064 23.5744 7.17281 23.6195 7.03064 23.6247C6.88847 23.63 6.74768 23.5952 6.62431 23.5244C6.46746 23.4344 6.33813 23.3033 6.25025 23.1453C6.16236 22.9872 6.11925 22.8082 6.12556 22.6275V5.369Z" fill="currentColor"/>
  <path d="M11.375 12.25C11.8942 12.25 12.4017 12.096 12.8334 11.8076C13.2651 11.5192 13.6015 11.1092 13.8002 10.6295C13.9989 10.1499 14.0508 9.62209 13.9496 9.11289C13.8483 8.60369 13.5983 8.13596 13.2312 7.76885C12.864 7.40173 12.3963 7.15173 11.8871 7.05044C11.3779 6.94915 10.8501 7.00114 10.3705 7.19982C9.8908 7.3985 9.48083 7.73495 9.19239 8.16663C8.90395 8.59831 8.75 9.10583 8.75 9.625C8.75 10.3212 9.02656 10.9889 9.51884 11.4812C10.0111 11.9734 10.6788 12.25 11.375 12.25ZM11.375 8.75C11.5481 8.75 11.7172 8.80132 11.8611 8.89747C12.005 8.99361 12.1172 9.13027 12.1834 9.29015C12.2496 9.45004 12.2669 9.62597 12.2332 9.79571C12.1994 9.96544 12.1161 10.1213 11.9937 10.2437C11.8713 10.3661 11.7154 10.4494 11.5457 10.4832C11.376 10.517 11.2 10.4996 11.0402 10.4334C10.8803 10.3672 10.7436 10.255 10.6475 10.1111C10.5513 9.96723 10.5 9.79806 10.5 9.625C10.5 9.39294 10.5922 9.17038 10.7563 9.00628C10.9204 8.84219 11.1429 8.75 11.375 8.75Z" fill="currentColor"/>
  <path d="M14 14.875C14 15.3942 14.154 15.9017 14.4424 16.3334C14.7308 16.765 15.1408 17.1015 15.6205 17.3002C16.1001 17.4989 16.6279 17.5508 17.1371 17.4496C17.6463 17.3483 18.114 17.0983 18.4812 16.7312C18.8483 16.364 19.0983 15.8963 19.1996 15.3871C19.3008 14.8779 19.2489 14.3501 19.0502 13.8705C18.8515 13.3908 18.515 12.9808 18.0834 12.6924C17.6517 12.404 17.1442 12.25 16.625 12.25C15.9288 12.25 15.2611 12.5266 14.7688 13.0188C14.2766 13.5111 14 14.1788 14 14.875ZM17.5 14.875C17.5 15.0481 17.4487 15.2172 17.3525 15.3611C17.2564 15.505 17.1197 15.6172 16.9598 15.6834C16.8 15.7496 16.624 15.7669 16.4543 15.7332C16.2846 15.6994 16.1287 15.6161 16.0063 15.4937C15.8839 15.3713 15.8006 15.2154 15.7668 15.0457C15.7331 14.876 15.7504 14.7 15.8166 14.5402C15.8828 14.3803 15.995 14.2436 16.1389 14.1475C16.2828 14.0513 16.4519 14 16.625 14C16.8571 14 17.0796 14.0922 17.2437 14.2563C17.4078 14.4204 17.5 14.6429 17.5 14.875Z" fill="currentColor"/>
  <path d="M10.7562 15.4936C10.9203 15.6577 11.1428 15.7498 11.3748 15.7498C11.6068 15.7498 11.8294 15.6577 11.9934 15.4936L17.2434 10.2436C17.4028 10.0786 17.491 9.85756 17.489 9.62814C17.487 9.39872 17.395 9.17926 17.2328 9.01702C17.0705 8.85479 16.8511 8.76277 16.6217 8.76078C16.3922 8.75878 16.1712 8.84698 16.0062 9.00637L10.7562 14.2564C10.5922 14.4205 10.5 14.643 10.5 14.875C10.5 15.107 10.5922 15.3295 10.7562 15.4936Z" fill="currentColor"/>
</g></symbol><symbol id="icon-size" viewBox="0 0 20 20"><g fill="none">
  <path d="M6.78005 10.9169C9.01885 10.9169 10.8312 9.38171 10.8312 7.50538C10.8312 5.62905 9.01885 4.09387 6.78005 4.09387C4.54124 4.09387 2.72888 5.62905 2.72888 7.50538C2.72888 9.38171 4.56256 10.9169 6.78005 10.9169ZM6.78005 4.94674C8.54977 4.94674 9.97834 6.09813 9.97834 7.50538C9.97834 8.91263 8.54977 10.064 6.78005 10.064C5.01033 10.064 3.58175 8.91263 3.58175 7.50538C3.58175 6.09813 5.03165 4.94674 6.78005 4.94674ZM4.86107 7.50538C4.86107 7.27084 5.05297 7.07894 5.28751 7.07894H8.27259C8.50713 7.07894 8.69902 7.27084 8.69902 7.50538C8.69902 7.73992 8.50713 7.93182 8.27259 7.93182H5.28751C5.05297 7.93182 4.86107 7.73992 4.86107 7.50538ZM18.9336 12.1962H12.9634V7.50538C12.9634 4.45634 10.1916 1.96167 6.78005 1.96167C3.36853 1.96167 0.59668 4.45634 0.59668 7.50538V11.7698C0.59668 14.8188 3.36853 17.3135 6.78005 17.3135H18.9336C19.1681 17.3135 19.36 17.1216 19.36 16.887V12.6227C19.36 12.3881 19.1681 12.1962 18.9336 12.1962ZM12.1105 12.1962H10.0636C10.8952 11.7271 11.5988 11.0661 12.1105 10.3199V12.1962ZM6.78005 2.81455C9.72248 2.81455 12.1105 4.92542 12.1105 7.50538C12.1105 10.0853 9.72248 12.1962 6.78005 12.1962C3.83762 12.1962 1.44956 10.0853 1.44956 7.50538C1.44956 4.92542 3.83762 2.81455 6.78005 2.81455ZM1.44956 11.7698V10.3199C2.51566 11.9617 4.51992 13.0491 6.78005 13.0491H14.2427V16.4606H12.9634V14.7548C12.9634 14.5203 12.7715 14.3284 12.537 14.3284C12.3024 14.3284 12.1105 14.5203 12.1105 14.7548V16.4606H10.8312V15.6077C10.8312 15.3732 10.6393 15.1813 10.4048 15.1813C10.1702 15.1813 9.97834 15.3732 9.97834 15.6077V16.4606H8.69902V14.7548C8.69902 14.5203 8.50713 14.3284 8.27259 14.3284C8.03804 14.3284 7.84615 14.5203 7.84615 14.7548V16.4606H6.78005C6.71608 16.4606 6.63079 16.4606 6.56683 16.4606V15.6077C6.56683 15.3732 6.37493 15.1813 6.14039 15.1813C5.90585 15.1813 5.71395 15.3732 5.71395 15.6077V16.3753C3.28325 15.9276 1.44956 14.0299 1.44956 11.7698ZM18.5071 16.4606H15.0956V13.0491H18.5071V16.4606ZM16.3749 14.7548C16.3749 14.7335 16.3749 14.6909 16.3749 14.6696C16.3749 14.6482 16.3963 14.6056 16.3963 14.5843C16.4176 14.5629 16.4176 14.5416 16.4389 14.5203C16.4602 14.499 16.4815 14.4777 16.5029 14.4563C16.6095 14.3497 16.7587 14.3071 16.8867 14.3284C16.908 14.3284 16.9506 14.3497 16.9719 14.3497C16.9933 14.3711 17.0146 14.3711 17.0359 14.3924C17.0572 14.4137 17.0786 14.435 17.0999 14.4563C17.1212 14.4777 17.1425 14.499 17.1638 14.5203C17.1852 14.5416 17.1852 14.5629 17.2065 14.5843C17.2278 14.6056 17.2278 14.6482 17.2278 14.6696C17.2278 14.6909 17.2278 14.7335 17.2278 14.7548C17.2278 14.7762 17.2278 14.8188 17.2278 14.8401C17.2278 14.8615 17.2065 14.9041 17.2065 14.9254C17.2065 14.9467 17.1852 14.9681 17.1638 14.9894C17.1425 15.0107 17.1212 15.032 17.0999 15.0534C17.0786 15.0747 17.0572 15.096 17.0359 15.1173C17.0146 15.1386 16.9933 15.1386 16.9719 15.16C16.9506 15.1813 16.908 15.1813 16.8867 15.1813C16.8653 15.1813 16.8227 15.1813 16.8014 15.1813C16.6948 15.1813 16.5881 15.1386 16.5029 15.0534C16.4815 15.032 16.4602 15.0107 16.4389 14.9894C16.4389 14.9681 16.4176 14.9467 16.4176 14.9254C16.3963 14.9041 16.3963 14.8615 16.3963 14.8401C16.3749 14.8188 16.3749 14.7975 16.3749 14.7548Z" fill="white"/>
</g></symbol><symbol id="icon-slider-arrow" viewBox="0 0 40 40"><g fill="none">
  <path d="M15.5555 8.88898L26.6667 20.0001L15.5555 31.1112" stroke="white" stroke-width="2"/>
</g></symbol><symbol id="icon-telegram-filled" viewBox="0 0 26 26"><g fill="none">
  <path d="M10.8379 15.6446L10.6167 18.9583C10.9417 18.9583 11.0853 18.8097 11.2667 18.6333L12.8281 17.115L16.0767 19.5151C16.6745 19.8449 17.106 19.6741 17.2549 18.96L19.3874 8.91069C19.6058 8.03533 19.0538 7.63831 18.4818 7.89797L5.95959 12.7265C5.10483 13.0693 5.10981 13.5462 5.80378 13.7587L9.01728 14.7617L16.4569 10.0681C16.8081 9.85516 17.1304 9.96966 16.8658 10.2045L10.8379 15.6446ZM13 26C5.8203 26 0 20.1797 0 13C0 5.8203 5.8203 0 13 0C20.1797 0 26 5.8203 26 13C26 20.1797 20.1797 26 13 26Z" fill="white"/>
  <path d="M13 26C20.1797 26 26 20.1797 26 13C26 5.8203 20.1797 0 13 0C5.8203 0 0 5.8203 0 13C0 20.1797 5.8203 26 13 26Z" fill="url(#paint0_linear_31_891)"/>
  <path d="M10.6171 18.9582C10.196 18.9582 10.2675 18.7991 10.1223 18.3981L8.88379 14.3221L18.4171 8.6665" fill="#C8DAEA"/>
  <path d="M10.6162 18.9583C10.9412 18.9583 11.0848 18.8097 11.2662 18.6333L12.9995 16.9478L10.8374 15.644" fill="#A9C9DD"/>
  <path d="M10.8379 15.6442L16.0769 19.5149C16.6748 19.8447 17.1063 19.6739 17.2552 18.9598L19.3877 8.9105C19.606 8.03514 19.054 7.63812 18.4821 7.89777L5.95986 12.7263C5.1051 13.0691 5.11008 13.546 5.80406 13.7585L9.01755 14.7615L16.4571 10.0679C16.8083 9.85497 17.1307 9.96947 16.8661 10.2043" fill="url(#paint1_linear_31_891)"/>
  
</g></symbol><symbol id="icon-telegram" viewBox="0 0 26 26"><g fill="none">
  <path d="M10.8379 15.6446L10.6167 18.9583C10.9417 18.9583 11.0853 18.8097 11.2667 18.6333L12.8281 17.115L16.0767 19.5151C16.6745 19.8449 17.106 19.6741 17.2549 18.96L19.3874 8.91069C19.6058 8.03533 19.0538 7.63831 18.4818 7.89797L5.95959 12.7265C5.10483 13.0693 5.10981 13.5462 5.80378 13.7587L9.01728 14.7617L16.4569 10.0681C16.8081 9.85516 17.1304 9.96966 16.8658 10.2045L10.8379 15.6446ZM13 26C5.8203 26 0 20.1797 0 13C0 5.8203 5.8203 0 13 0C20.1797 0 26 5.8203 26 13C26 20.1797 20.1797 26 13 26Z" fill="white" fill-opacity="0.4"/>
</g></symbol><symbol id="icon-time" viewBox="0 0 16 16"><g fill="none">
<g clip-path="url(#clip0_1058_8710)">
<circle cx="8" cy="8" r="7.4" stroke="#B88F64" stroke-width="1.2"/>
<path d="M10.0982 11.5096L7.19922 8.61058V3.59961H8.64873V8.01048L11.1231 10.4848L10.0982 11.5096Z" fill="#B88F64"/>
</g>

</g></symbol><symbol id="icon-trash" viewBox="0 0 20 20"><g fill="none">
  <path d="M15.5554 6.66699L14.9999 15.5559C14.8676 16.7904 13.6771 17.7781 12.3544 17.7781H7.64539C6.32264 17.7781 5.13217 16.7904 4.99989 15.5559L4.44434 6.66699" stroke="currentColor" stroke-width="1.2" stroke-miterlimit="10"/>
  <path d="M8.4707 8.11768V13.5294" stroke="currentColor" stroke-width="1.2" stroke-miterlimit="10"/>
  <path d="M11.5295 8.11768V13.5294" stroke="currentColor" stroke-width="1.2" stroke-miterlimit="10"/>
  <path d="M13.0586 4.70603L12.3527 2.58838H7.64685L6.94097 4.70603M2.94141 4.70603H17.0591" stroke="currentColor" stroke-width="1.2" stroke-miterlimit="10"/>
</g></symbol><symbol id="icon-visa" viewBox="0 0 70 47"><g fill="none">
<rect width="70" height="46.6667" rx="8.55556" fill="#0D0D0D"/>
<g clip-path="url(#clip0_1063_9215)">
<path d="M28.325 30.8026L30.7978 16.3233H34.7529L32.2783 30.8026H28.325ZM46.5678 16.6355C45.7844 16.3421 44.5565 16.0273 43.0231 16.0273C39.1148 16.0273 36.3621 17.9912 36.3385 20.8057C36.3165 22.8863 38.3039 24.047 39.8041 24.7395C41.3438 25.4495 41.8612 25.902 41.8538 26.5356C41.8439 27.5063 40.6244 27.9495 39.4875 27.9495C37.9045 27.9495 37.0635 27.73 35.7645 27.1896L35.2547 26.9595L34.6998 30.2008C35.6236 30.6052 37.3318 30.9552 39.1056 30.9733C43.2632 30.9733 45.9622 29.0319 45.9929 26.0262C46.0077 24.379 44.954 23.1257 42.6721 22.0922C41.2896 21.4224 40.443 20.9754 40.452 20.2972C40.452 19.6953 41.1686 19.0518 42.7172 19.0518C44.0104 19.0317 44.9475 19.3131 45.6774 19.6065L46.0318 19.7736L46.5678 16.6355ZM56.7459 16.3231H53.6897C52.743 16.3231 52.0344 16.581 51.6187 17.5239L45.7447 30.7931H49.8979C49.8979 30.7931 50.5768 29.009 50.7304 28.6172C51.1843 28.6172 55.219 28.6234 55.7958 28.6234C55.9141 29.1304 56.277 30.7931 56.277 30.7931H59.9471L56.7459 16.3227V16.3231ZM51.8969 25.673C52.224 24.8387 53.4727 21.6253 53.4727 21.6253C53.4495 21.6639 53.7975 20.787 53.9971 20.2434L54.2644 21.4918C54.2644 21.4918 55.0217 24.9481 55.18 25.6728H51.8969V25.673ZM24.9674 16.3231L21.0952 26.1974L20.6827 24.1908C19.9618 21.8776 17.7159 19.3715 15.2051 18.1168L18.7458 30.7796L22.9305 30.7749L29.1572 16.323L24.9674 16.3229" fill="white" fill-opacity="0.56"/>
<path d="M17.481 16.3223H11.1033L11.0527 16.6235C16.0146 17.822 19.2976 20.7184 20.6608 24.199L19.274 17.5451C19.0346 16.6283 18.3402 16.3546 17.4812 16.3226" fill="#F2AE14"/>
</g>

</g></symbol><symbol id="icon-whats-app-filled" viewBox="0 0 26 26"><g fill="none">
  <path fill-rule="evenodd" clip-rule="evenodd" d="M13.0544 25.7766H13.0491C10.8825 25.7758 8.75353 25.2348 6.86268 24.2084L0 26L1.83657 19.3238C0.703684 17.3699 0.107565 15.1536 0.108537 12.8829C0.111377 5.77931 5.91879 0 13.0543 0C16.5174 0.00148749 19.7678 1.34321 22.2119 3.7785C24.6561 6.21366 26.0014 9.45058 26 12.893C25.9971 19.995 20.192 25.7737 13.0544 25.7766ZM3.10823 22.9392L3.1257 22.8757L3.23146 22.907L3.10823 22.9392ZM19.1333 15.6668C19.0786 15.6404 19.0196 15.612 18.9564 15.5806C18.6329 15.4194 17.0426 14.6408 16.7461 14.5332C16.4496 14.4258 16.2339 14.3722 16.0183 14.6943C15.8027 15.0166 15.1828 15.7418 14.9941 15.9566C14.8054 16.1714 14.6167 16.1984 14.2933 16.0372C14.2405 16.0108 14.1685 15.9797 14.0795 15.9414C13.6241 15.7448 12.7257 15.3569 11.6921 14.4394C10.7304 13.5857 10.0813 12.5316 9.89258 12.2093C9.7039 11.887 9.87247 11.7128 10.0344 11.5523C10.1313 11.4562 10.2426 11.3214 10.3538 11.1865C10.4097 11.1188 10.4656 11.0511 10.5196 10.9883C10.6571 10.8286 10.7166 10.7075 10.7976 10.543C10.8119 10.5139 10.8269 10.4835 10.8431 10.4513C10.9509 10.2364 10.897 10.0484 10.8161 9.8873C10.762 9.77947 10.4545 9.03434 10.1761 8.35995C10.0385 8.02647 9.90798 7.71029 9.8188 7.49701C9.58697 6.94281 9.35196 6.94418 9.16346 6.94528C9.13846 6.94543 9.11427 6.94557 9.09101 6.94441C8.90255 6.93498 8.68667 6.933 8.47106 6.933C8.25543 6.933 7.90497 7.01357 7.60848 7.33586C7.58947 7.35653 7.56824 7.37907 7.54516 7.40358C7.20827 7.76134 6.47637 8.53858 6.47637 10.0214C6.47637 11.5977 7.62337 13.1208 7.79456 13.3481L7.79717 13.3516C7.80775 13.3656 7.82673 13.3927 7.85386 13.4314C8.24118 13.9843 10.2905 16.9093 13.3229 18.2124C14.0947 18.5441 14.6971 18.7422 15.167 18.8905C15.9418 19.1356 16.647 19.101 17.2043 19.0181C17.8258 18.9257 19.1181 18.2394 19.3877 17.4875C19.6572 16.7354 19.6572 16.0908 19.5763 15.9566C19.5113 15.8485 19.3589 15.7753 19.1333 15.6668Z" fill="white" fill-opacity="0.4"/>
  <path fill-rule="evenodd" clip-rule="evenodd" d="M13.0491 25.7766H13.0544C20.192 25.7737 25.9971 19.995 26 12.893C26.0014 9.45058 24.6561 6.21366 22.2119 3.7785C19.7678 1.34321 16.5174 0.00148749 13.0543 0C5.91879 0 0.111377 5.77931 0.108537 12.8829C0.107565 15.1536 0.703684 17.3699 1.83657 19.3238L0 26L6.86268 24.2084C8.75353 25.2348 10.8825 25.7758 13.0491 25.7766ZM3.1257 22.8757L3.10823 22.9392L3.23146 22.907C3.19442 22.8961 3.15914 22.8856 3.1257 22.8757Z" fill="#25D366"/>
  <path d="M18.9566 15.5807C19.2801 15.7419 19.4957 15.8224 19.5765 15.9567C19.6574 16.0909 19.6574 16.7355 19.3879 17.4876C19.1183 18.2395 17.826 18.9258 17.2045 19.0182C16.6472 19.1011 15.942 19.1357 15.1672 18.8906C14.6973 18.7423 14.0949 18.5442 13.3231 18.2125C10.0783 16.8181 7.95908 13.5666 7.79736 13.3517L7.79475 13.3482C7.62357 13.1209 6.47656 11.5978 6.47656 10.0215C6.47656 8.43709 7.31219 7.65826 7.60867 7.33597C7.90516 7.01368 8.25562 6.93311 8.47125 6.93311C8.68687 6.93311 8.90275 6.93509 9.09121 6.94451C9.28975 6.95443 9.55641 6.86939 9.81899 7.49711C10.0885 8.1417 10.7354 9.72626 10.8163 9.8874C10.8972 10.0485 10.9511 10.2365 10.8433 10.4514C10.7354 10.6661 10.6815 10.8005 10.5198 10.9884C10.3581 11.1763 10.1801 11.4081 10.0346 11.5524C9.87266 11.7129 9.70409 11.8871 9.89278 12.2094C10.0815 12.5317 10.7306 13.5858 11.6923 14.4395C12.9278 15.5362 13.9701 15.8762 14.2935 16.0373C14.6169 16.1985 14.8056 16.1715 14.9943 15.9567C15.183 15.7419 15.8029 15.0167 16.0185 14.6944C16.2341 14.3723 16.4498 14.4259 16.7463 14.5333C17.0428 14.6409 18.6331 15.4196 18.9566 15.5807Z" fill="#FDFDFD"/>
</g></symbol><symbol id="icon-whats-app" viewBox="0 0 26 26"><g fill="none">
  <path fill-rule="evenodd" clip-rule="evenodd" d="M13.0544 25.7766H13.0491C10.8825 25.7758 8.75353 25.2348 6.86268 24.2084L0 26L1.83657 19.3238C0.703684 17.3699 0.107565 15.1536 0.108537 12.8829C0.111377 5.77931 5.91879 0 13.0543 0C16.5174 0.00148749 19.7678 1.34321 22.2119 3.7785C24.6561 6.21366 26.0014 9.45058 26 12.893C25.9971 19.995 20.192 25.7737 13.0544 25.7766ZM3.10823 22.9392L3.1257 22.8757L3.23146 22.907L3.10823 22.9392ZM19.1333 15.6668C19.0786 15.6404 19.0196 15.612 18.9564 15.5806C18.6329 15.4194 17.0426 14.6408 16.7461 14.5332C16.4496 14.4258 16.2339 14.3722 16.0183 14.6943C15.8027 15.0166 15.1828 15.7418 14.9941 15.9566C14.8054 16.1714 14.6167 16.1984 14.2933 16.0372C14.2405 16.0108 14.1685 15.9797 14.0795 15.9414C13.6241 15.7448 12.7257 15.3569 11.6921 14.4394C10.7304 13.5857 10.0813 12.5316 9.89258 12.2093C9.7039 11.887 9.87247 11.7128 10.0344 11.5523C10.1313 11.4562 10.2426 11.3214 10.3538 11.1865C10.4097 11.1188 10.4656 11.0511 10.5196 10.9883C10.6571 10.8286 10.7166 10.7075 10.7976 10.543C10.8119 10.5139 10.8269 10.4835 10.8431 10.4513C10.9509 10.2364 10.897 10.0484 10.8161 9.8873C10.762 9.77947 10.4545 9.03434 10.1761 8.35995C10.0385 8.02647 9.90798 7.71029 9.8188 7.49701C9.58697 6.94281 9.35196 6.94418 9.16346 6.94528C9.13846 6.94543 9.11427 6.94557 9.09101 6.94441C8.90255 6.93498 8.68667 6.933 8.47106 6.933C8.25543 6.933 7.90497 7.01357 7.60848 7.33586C7.58947 7.35653 7.56824 7.37907 7.54516 7.40358C7.20827 7.76134 6.47637 8.53858 6.47637 10.0214C6.47637 11.5977 7.62337 13.1208 7.79456 13.3481L7.79717 13.3516C7.80775 13.3656 7.82673 13.3927 7.85386 13.4314C8.24118 13.9843 10.2905 16.9093 13.3229 18.2124C14.0947 18.5441 14.6971 18.7422 15.167 18.8905C15.9418 19.1356 16.647 19.101 17.2043 19.0181C17.8258 18.9257 19.1181 18.2394 19.3877 17.4875C19.6572 16.7354 19.6572 16.0908 19.5763 15.9566C19.5113 15.8485 19.3589 15.7753 19.1333 15.6668Z" fill="white" fill-opacity="0.4"/>
</g></symbol></svg>